M48
; DRILL file {KiCad 7.0.7} date 2023 August 28, Monday 22:10:10
; FORMAT={-:-/ absolute / inch / decimal}
; #@! TF.CreationDate,2023-08-28T22:10:10-07:00
; #@! TF.GenerationSoftware,Kicad,Pcbnew,7.0.7
; #@! TF.FileFunction,Plated,1,2,PTH
FMAT,2
INCH
; #@! TA.AperFunction,Plated,PTH,ViaDrill
T1C0.0157
; #@! TA.AperFunction,Plated,PTH,ComponentDrill
T2C0.0236
; #@! TA.AperFunction,Plated,PTH,ComponentDrill
T3C0.1260
%
G90
G05
T1
X5.798Y-4.618
X5.97Y-3.284
X5.996Y-4.422
X5.998Y-4.994
X6.046Y-4.532
X6.108Y-4.764
X6.128Y-3.616
X6.13Y-3.564
X6.17Y-5.118
X6.2Y-4.94
X6.244Y-4.068
X6.27Y-4.3
X6.2786Y-5.1077
X6.296Y-4.94
X6.322Y-4.068
X6.336Y-4.798
X6.364Y-5.12
X6.378Y-4.47
X6.382Y-4.596
X6.382Y-4.6354
X6.386Y-4.94
X6.39Y-4.068
X6.392Y-4.25
X6.4216Y-5.1244
X6.46Y-4.1475
X6.464Y-4.068
X6.494Y-3.784
X6.502Y-4.3395
X6.556Y-4.228
X6.608Y-4.67
X6.622Y-3.23
X6.628Y-3.4
X6.682Y-4.722
X6.7411Y-3.437
X6.7411Y-3.5787
X6.7411Y-3.6496
X6.742Y-3.32
T3
X5.7087Y-2.9134
X5.7087Y-5.315
X6.8898Y-2.9134
X6.8898Y-5.315
T2
G00X6.1252Y-5.1707
M15
G01X6.1252Y-5.214
M16
G05
G00X6.1252Y-5.3411
M15
G01X6.1252Y-5.3726
M16
G05
G00X6.4654Y-5.1707
M15
G01X6.4654Y-5.214
M16
G05
G00X6.4654Y-5.3411
M15
G01X6.4654Y-5.3726
M16
G05
T0
M30
