%TF.GenerationSoftware,KiCad,Pcbnew,7.0.7*%
%TF.CreationDate,2023-08-28T22:10:07-07:00*%
%TF.ProjectId,Untitled,556e7469-746c-4656-942e-6b696361645f,rev?*%
%TF.SameCoordinates,Original*%
%TF.FileFunction,Copper,L2,Bot*%
%TF.FilePolarity,Positive*%
%FSLAX46Y46*%
G04 Gerber Fmt 4.6, Leading zero omitted, Abs format (unit mm)*
G04 Created by KiCad (PCBNEW 7.0.7) date 2023-08-28 22:10:07*
%MOMM*%
%LPD*%
G01*
G04 APERTURE LIST*
%TA.AperFunction,ComponentPad*%
%ADD10C,5.600000*%
%TD*%
%TA.AperFunction,ComponentPad*%
%ADD11O,1.050000X2.100000*%
%TD*%
%TA.AperFunction,ComponentPad*%
%ADD12O,1.000000X2.000000*%
%TD*%
%TA.AperFunction,ViaPad*%
%ADD13C,0.800000*%
%TD*%
%TA.AperFunction,Conductor*%
%ADD14C,0.250000*%
%TD*%
G04 APERTURE END LIST*
D10*
%TO.P,H1,1*%
%TO.N,N/C*%
X145000000Y-74000000D03*
%TD*%
%TO.P,H4,1*%
%TO.N,N/C*%
X175000000Y-135000000D03*
%TD*%
%TO.P,H2,1*%
%TO.N,N/C*%
X175000000Y-74000000D03*
%TD*%
D11*
%TO.P,J1,S1,SHELL_GND*%
%TO.N,Net-(J1-SHELL_GND-PadS1)*%
X155580000Y-131885000D03*
D12*
%TO.P,J1,S2,SHELL_GND*%
X155580000Y-136065000D03*
%TO.P,J1,S3,SHELL_GND*%
X164220000Y-136065000D03*
D11*
%TO.P,J1,S4,SHELL_GND*%
X164220000Y-131885000D03*
%TD*%
D10*
%TO.P,H3,1*%
%TO.N,N/C*%
X145000000Y-135000000D03*
%TD*%
D13*
%TO.N,VDD*%
X155702000Y-90525600D03*
X165150800Y-110224502D03*
X164084000Y-105347000D03*
X153568400Y-115112800D03*
%TO.N,GND*%
X152298400Y-112318800D03*
X159918400Y-125476000D03*
X168198800Y-82042000D03*
X155651200Y-91846400D03*
X163109401Y-130158999D03*
X169722800Y-119938800D03*
X152349200Y-126847600D03*
X160934400Y-121869200D03*
X164947600Y-96113600D03*
X166522400Y-107391200D03*
X155143200Y-121005600D03*
X167843200Y-118618000D03*
X164185600Y-103327200D03*
X151638000Y-83413600D03*
X168351200Y-86360000D03*
X159258000Y-109220000D03*
X162204400Y-125476000D03*
X147269200Y-117297200D03*
X157480000Y-125476000D03*
X162356800Y-107950000D03*
X162306000Y-103327200D03*
X171246800Y-84328000D03*
X160578800Y-103327200D03*
X158597600Y-103327200D03*
X156718000Y-129997200D03*
%TO.N,Net-(J1-CC2)*%
X159475500Y-129735500D03*
X161645600Y-130048000D03*
%TO.N,/SPICS*%
X162001200Y-113538000D03*
X171225000Y-92700000D03*
%TO.N,/SPICLK*%
X171225000Y-87300000D03*
X162102800Y-116738400D03*
%TO.N,/SPIMOSI*%
X171225000Y-90900000D03*
X162102800Y-117737903D03*
%TD*%
D14*
%TO.N,VDD*%
X163031000Y-104294000D02*
X153568400Y-113756600D01*
X155702000Y-90525600D02*
X163031000Y-97854600D01*
X165150800Y-110224502D02*
X165150800Y-106413800D01*
X163031000Y-97854600D02*
X163031000Y-104294000D01*
X165150800Y-106413800D02*
X164084000Y-105347000D01*
X153568400Y-113756600D02*
X153568400Y-115112800D01*
X163031000Y-104294000D02*
X164084000Y-105347000D01*
%TO.N,Net-(J1-CC2)*%
X159788000Y-130048000D02*
X159475500Y-129735500D01*
X161645600Y-130048000D02*
X159788000Y-130048000D01*
%TO.N,/SPICS*%
X171225000Y-92700000D02*
X171196000Y-92729000D01*
X163271200Y-113538000D02*
X162001200Y-113538000D01*
X171196000Y-92729000D02*
X171196000Y-105613200D01*
X171196000Y-105613200D02*
X163271200Y-113538000D01*
%TO.N,/SPICLK*%
X171225000Y-87300000D02*
X172466000Y-88541000D01*
X172466000Y-106375200D02*
X162102800Y-116738400D01*
X172466000Y-88541000D02*
X172466000Y-106375200D01*
%TO.N,/SPIMOSI*%
X172016000Y-91691000D02*
X171225000Y-90900000D01*
X172016000Y-105758400D02*
X172016000Y-91691000D01*
X162076998Y-117737903D02*
X161377800Y-117038705D01*
X162102800Y-117737903D02*
X162076998Y-117737903D01*
X161377800Y-117038705D02*
X161377800Y-116396600D01*
X161377800Y-116396600D02*
X172016000Y-105758400D01*
%TD*%
%TA.AperFunction,Conductor*%
%TO.N,GND*%
G36*
X178942406Y-81300755D02*
G01*
X178988228Y-81353500D01*
X178999500Y-81405156D01*
X178999500Y-108125551D01*
X178979815Y-108192590D01*
X178927011Y-108238345D01*
X178874739Y-108249549D01*
X171818130Y-108206257D01*
X171751213Y-108186161D01*
X171705783Y-108133078D01*
X171696264Y-108063859D01*
X171725678Y-108000483D01*
X171731182Y-107994607D01*
X172849788Y-106876001D01*
X172862042Y-106866186D01*
X172861859Y-106865964D01*
X172867866Y-106860992D01*
X172867877Y-106860986D01*
X172898775Y-106828082D01*
X172915227Y-106810564D01*
X172925671Y-106800118D01*
X172936120Y-106789671D01*
X172940379Y-106784178D01*
X172944152Y-106779761D01*
X172976062Y-106745782D01*
X172985715Y-106728220D01*
X172996389Y-106711970D01*
X173008673Y-106696136D01*
X173027180Y-106653367D01*
X173029749Y-106648124D01*
X173052196Y-106607293D01*
X173052197Y-106607292D01*
X173057177Y-106587891D01*
X173063478Y-106569488D01*
X173071438Y-106551096D01*
X173078730Y-106505049D01*
X173079911Y-106499352D01*
X173091500Y-106454219D01*
X173091500Y-106434174D01*
X173093025Y-106414791D01*
X173096160Y-106395004D01*
X173093567Y-106367572D01*
X173091775Y-106348615D01*
X173091500Y-106342777D01*
X173091500Y-88623742D01*
X173093224Y-88608122D01*
X173092939Y-88608096D01*
X173093671Y-88600340D01*
X173093673Y-88600333D01*
X173091500Y-88531185D01*
X173091500Y-88501650D01*
X173090631Y-88494772D01*
X173090172Y-88488943D01*
X173088709Y-88442372D01*
X173083122Y-88423144D01*
X173079174Y-88404084D01*
X173076663Y-88384204D01*
X173059512Y-88340887D01*
X173057619Y-88335358D01*
X173044618Y-88290609D01*
X173044616Y-88290606D01*
X173034423Y-88273371D01*
X173025861Y-88255894D01*
X173018487Y-88237270D01*
X173018486Y-88237268D01*
X172991079Y-88199545D01*
X172987888Y-88194686D01*
X172964172Y-88154583D01*
X172964165Y-88154574D01*
X172950006Y-88140415D01*
X172937368Y-88125619D01*
X172925594Y-88109413D01*
X172895057Y-88084151D01*
X172889688Y-88079709D01*
X172885376Y-88075786D01*
X172163960Y-87354369D01*
X172130475Y-87293046D01*
X172128323Y-87279668D01*
X172110674Y-87111744D01*
X172052179Y-86931716D01*
X171957533Y-86767784D01*
X171830871Y-86627112D01*
X171830870Y-86627111D01*
X171677734Y-86515851D01*
X171677729Y-86515848D01*
X171504807Y-86438857D01*
X171504802Y-86438855D01*
X171359001Y-86407865D01*
X171319646Y-86399500D01*
X171130354Y-86399500D01*
X171097897Y-86406398D01*
X170945197Y-86438855D01*
X170945192Y-86438857D01*
X170772270Y-86515848D01*
X170772265Y-86515851D01*
X170619129Y-86627111D01*
X170492466Y-86767785D01*
X170397821Y-86931715D01*
X170397818Y-86931722D01*
X170339327Y-87111740D01*
X170339326Y-87111744D01*
X170319540Y-87300000D01*
X170339326Y-87488256D01*
X170339327Y-87488259D01*
X170397818Y-87668277D01*
X170397821Y-87668284D01*
X170492467Y-87832216D01*
X170619128Y-87972887D01*
X170619129Y-87972888D01*
X170772265Y-88084148D01*
X170772270Y-88084151D01*
X170945192Y-88161142D01*
X170945197Y-88161144D01*
X171130354Y-88200500D01*
X171189548Y-88200500D01*
X171256587Y-88220185D01*
X171277229Y-88236819D01*
X171804181Y-88763771D01*
X171837666Y-88825094D01*
X171840500Y-88851452D01*
X171840500Y-89997375D01*
X171820815Y-90064414D01*
X171768011Y-90110169D01*
X171698853Y-90120113D01*
X171666064Y-90110654D01*
X171504807Y-90038857D01*
X171504802Y-90038855D01*
X171359000Y-90007865D01*
X171319646Y-89999500D01*
X171130354Y-89999500D01*
X171097897Y-90006398D01*
X170945197Y-90038855D01*
X170945192Y-90038857D01*
X170772270Y-90115848D01*
X170772265Y-90115851D01*
X170619129Y-90227111D01*
X170492466Y-90367785D01*
X170397821Y-90531715D01*
X170397818Y-90531722D01*
X170339327Y-90711740D01*
X170339326Y-90711744D01*
X170319540Y-90900000D01*
X170339326Y-91088256D01*
X170339327Y-91088259D01*
X170397818Y-91268277D01*
X170397821Y-91268284D01*
X170492467Y-91432216D01*
X170619128Y-91572887D01*
X170619129Y-91572888D01*
X170772265Y-91684148D01*
X170772267Y-91684149D01*
X170772270Y-91684151D01*
X170778043Y-91686721D01*
X170831280Y-91731972D01*
X170851600Y-91798822D01*
X170832554Y-91866045D01*
X170780187Y-91912300D01*
X170778072Y-91913265D01*
X170775151Y-91914566D01*
X170772267Y-91915850D01*
X170772265Y-91915851D01*
X170619129Y-92027111D01*
X170492466Y-92167785D01*
X170397821Y-92331715D01*
X170397818Y-92331722D01*
X170339327Y-92511740D01*
X170339326Y-92511744D01*
X170319540Y-92700000D01*
X170339326Y-92888256D01*
X170339327Y-92888259D01*
X170397818Y-93068277D01*
X170397821Y-93068284D01*
X170492467Y-93232216D01*
X170538650Y-93283507D01*
X170568880Y-93346498D01*
X170570500Y-93366479D01*
X170570500Y-105302746D01*
X170550815Y-105369785D01*
X170534181Y-105390427D01*
X166125340Y-109799267D01*
X166064017Y-109832752D01*
X165994325Y-109827768D01*
X165938392Y-109785896D01*
X165930272Y-109773586D01*
X165908152Y-109735275D01*
X165883333Y-109692286D01*
X165844822Y-109649515D01*
X165808150Y-109608786D01*
X165777920Y-109545794D01*
X165776300Y-109525814D01*
X165776300Y-106496542D01*
X165778024Y-106480922D01*
X165777739Y-106480896D01*
X165778471Y-106473140D01*
X165778473Y-106473133D01*
X165776300Y-106403985D01*
X165776300Y-106374450D01*
X165775431Y-106367572D01*
X165774972Y-106361743D01*
X165773509Y-106315172D01*
X165767922Y-106295944D01*
X165763974Y-106276884D01*
X165761463Y-106257004D01*
X165744312Y-106213687D01*
X165742419Y-106208158D01*
X165729418Y-106163409D01*
X165729416Y-106163406D01*
X165719223Y-106146171D01*
X165710661Y-106128694D01*
X165703287Y-106110070D01*
X165703286Y-106110068D01*
X165675879Y-106072345D01*
X165672688Y-106067486D01*
X165648972Y-106027383D01*
X165648965Y-106027374D01*
X165634806Y-106013215D01*
X165622168Y-105998419D01*
X165610394Y-105982213D01*
X165574488Y-105952509D01*
X165570176Y-105948586D01*
X165022960Y-105401369D01*
X164989475Y-105340046D01*
X164987323Y-105326668D01*
X164969674Y-105158744D01*
X164911179Y-104978716D01*
X164816533Y-104814784D01*
X164689871Y-104674112D01*
X164689870Y-104674111D01*
X164536734Y-104562851D01*
X164536729Y-104562848D01*
X164363807Y-104485857D01*
X164363802Y-104485855D01*
X164218000Y-104454865D01*
X164178646Y-104446500D01*
X164178645Y-104446500D01*
X164119452Y-104446500D01*
X164052413Y-104426815D01*
X164031771Y-104410181D01*
X163692819Y-104071228D01*
X163659334Y-104009905D01*
X163656500Y-103983547D01*
X163656500Y-97937337D01*
X163658224Y-97921723D01*
X163657938Y-97921696D01*
X163658672Y-97913933D01*
X163656500Y-97844803D01*
X163656500Y-97815251D01*
X163656500Y-97815250D01*
X163655629Y-97808359D01*
X163655172Y-97802545D01*
X163653709Y-97755972D01*
X163648122Y-97736744D01*
X163644174Y-97717684D01*
X163641664Y-97697808D01*
X163624507Y-97654475D01*
X163622619Y-97648959D01*
X163609619Y-97604212D01*
X163599418Y-97586963D01*
X163590860Y-97569494D01*
X163583486Y-97550868D01*
X163583483Y-97550864D01*
X163583483Y-97550863D01*
X163556098Y-97513171D01*
X163552890Y-97508287D01*
X163529172Y-97468182D01*
X163529163Y-97468171D01*
X163515005Y-97454013D01*
X163502370Y-97439220D01*
X163490593Y-97423012D01*
X163454693Y-97393313D01*
X163450381Y-97389390D01*
X156640960Y-90579969D01*
X156607475Y-90518646D01*
X156605323Y-90505268D01*
X156587674Y-90337344D01*
X156529179Y-90157316D01*
X156434533Y-89993384D01*
X156307871Y-89852712D01*
X156307870Y-89852711D01*
X156154734Y-89741451D01*
X156154729Y-89741448D01*
X155981807Y-89664457D01*
X155981802Y-89664455D01*
X155836000Y-89633465D01*
X155796646Y-89625100D01*
X155607354Y-89625100D01*
X155574897Y-89631998D01*
X155422197Y-89664455D01*
X155422192Y-89664457D01*
X155249270Y-89741448D01*
X155249265Y-89741451D01*
X155096129Y-89852711D01*
X154969466Y-89993385D01*
X154874821Y-90157315D01*
X154874818Y-90157322D01*
X154816327Y-90337340D01*
X154816326Y-90337344D01*
X154796540Y-90525600D01*
X154816326Y-90713856D01*
X154816327Y-90713859D01*
X154874818Y-90893877D01*
X154874821Y-90893884D01*
X154969467Y-91057816D01*
X155096128Y-91198487D01*
X155096129Y-91198488D01*
X155249265Y-91309748D01*
X155249270Y-91309751D01*
X155422192Y-91386742D01*
X155422197Y-91386744D01*
X155607354Y-91426100D01*
X155666548Y-91426100D01*
X155733587Y-91445785D01*
X155754229Y-91462419D01*
X162369181Y-98077371D01*
X162402666Y-98138694D01*
X162405500Y-98165052D01*
X162405500Y-103983546D01*
X162385815Y-104050585D01*
X162369181Y-104071227D01*
X153184608Y-113255799D01*
X153172351Y-113265620D01*
X153172534Y-113265841D01*
X153166523Y-113270813D01*
X153119172Y-113321236D01*
X153098289Y-113342119D01*
X153098277Y-113342132D01*
X153094021Y-113347617D01*
X153090237Y-113352047D01*
X153058337Y-113386018D01*
X153058336Y-113386020D01*
X153048684Y-113403576D01*
X153038010Y-113419826D01*
X153025729Y-113435661D01*
X153025724Y-113435668D01*
X153007215Y-113478438D01*
X153004645Y-113483684D01*
X152982203Y-113524506D01*
X152977222Y-113543907D01*
X152970921Y-113562310D01*
X152962962Y-113580702D01*
X152962961Y-113580705D01*
X152955671Y-113626727D01*
X152954487Y-113632446D01*
X152942901Y-113677572D01*
X152942900Y-113677582D01*
X152942900Y-113697616D01*
X152941373Y-113717015D01*
X152938240Y-113736794D01*
X152938240Y-113736795D01*
X152942625Y-113783183D01*
X152942900Y-113789021D01*
X152942900Y-114414112D01*
X152923215Y-114481151D01*
X152911050Y-114497084D01*
X152835866Y-114580584D01*
X152741221Y-114744515D01*
X152741218Y-114744522D01*
X152682727Y-114924540D01*
X152682726Y-114924544D01*
X152662940Y-115112800D01*
X152682726Y-115301056D01*
X152682727Y-115301059D01*
X152741218Y-115481077D01*
X152741221Y-115481084D01*
X152835867Y-115645016D01*
X152962528Y-115785687D01*
X152962529Y-115785688D01*
X153115665Y-115896948D01*
X153115670Y-115896951D01*
X153288592Y-115973942D01*
X153288597Y-115973944D01*
X153473754Y-116013300D01*
X153473755Y-116013300D01*
X153663044Y-116013300D01*
X153663046Y-116013300D01*
X153848203Y-115973944D01*
X154021130Y-115896951D01*
X154174271Y-115785688D01*
X154300933Y-115645016D01*
X154395579Y-115481084D01*
X154454074Y-115301056D01*
X154473860Y-115112800D01*
X154454074Y-114924544D01*
X154395579Y-114744516D01*
X154300933Y-114580584D01*
X154225750Y-114497084D01*
X154195520Y-114434092D01*
X154193900Y-114414112D01*
X154193900Y-114067052D01*
X154213585Y-114000013D01*
X154230219Y-113979371D01*
X158517304Y-109692286D01*
X162943320Y-105266269D01*
X163004641Y-105232786D01*
X163074333Y-105237770D01*
X163118680Y-105266271D01*
X163145039Y-105292630D01*
X163178524Y-105353953D01*
X163180678Y-105367343D01*
X163198326Y-105535256D01*
X163198327Y-105535259D01*
X163256818Y-105715277D01*
X163256821Y-105715284D01*
X163351467Y-105879216D01*
X163444206Y-105982213D01*
X163478129Y-106019888D01*
X163631265Y-106131148D01*
X163631270Y-106131151D01*
X163804192Y-106208142D01*
X163804197Y-106208144D01*
X163989354Y-106247500D01*
X164048548Y-106247500D01*
X164115587Y-106267185D01*
X164136229Y-106283819D01*
X164488982Y-106636572D01*
X164522466Y-106697893D01*
X164525300Y-106724251D01*
X164525300Y-109525814D01*
X164505615Y-109592853D01*
X164493450Y-109608786D01*
X164418266Y-109692286D01*
X164323621Y-109856217D01*
X164323618Y-109856224D01*
X164265127Y-110036242D01*
X164265126Y-110036246D01*
X164245340Y-110224502D01*
X164265126Y-110412758D01*
X164265127Y-110412761D01*
X164323618Y-110592779D01*
X164323621Y-110592786D01*
X164418267Y-110756718D01*
X164544928Y-110897389D01*
X164544929Y-110897390D01*
X164703327Y-111012473D01*
X164702273Y-111013922D01*
X164744460Y-111058152D01*
X164757695Y-111126757D01*
X164731738Y-111191626D01*
X164721935Y-111202672D01*
X163048428Y-112876181D01*
X162987105Y-112909666D01*
X162960747Y-112912500D01*
X162704948Y-112912500D01*
X162637909Y-112892815D01*
X162612800Y-112871474D01*
X162607073Y-112865114D01*
X162607069Y-112865110D01*
X162453934Y-112753851D01*
X162453929Y-112753848D01*
X162281007Y-112676857D01*
X162281002Y-112676855D01*
X162135200Y-112645865D01*
X162095846Y-112637500D01*
X161906554Y-112637500D01*
X161874097Y-112644398D01*
X161721397Y-112676855D01*
X161721392Y-112676857D01*
X161548470Y-112753848D01*
X161548465Y-112753851D01*
X161395329Y-112865111D01*
X161268666Y-113005785D01*
X161174021Y-113169715D01*
X161174018Y-113169722D01*
X161118000Y-113342129D01*
X161115526Y-113349744D01*
X161095740Y-113538000D01*
X161115526Y-113726256D01*
X161115527Y-113726259D01*
X161174018Y-113906277D01*
X161174021Y-113906284D01*
X161268667Y-114070216D01*
X161352661Y-114163500D01*
X161395329Y-114210888D01*
X161548465Y-114322148D01*
X161548470Y-114322151D01*
X161721392Y-114399142D01*
X161721397Y-114399144D01*
X161906554Y-114438500D01*
X161906555Y-114438500D01*
X162095844Y-114438500D01*
X162095846Y-114438500D01*
X162137792Y-114429584D01*
X162207458Y-114434900D01*
X162263192Y-114477037D01*
X162287297Y-114542617D01*
X162272120Y-114610818D01*
X162251253Y-114638555D01*
X160994008Y-115895799D01*
X160981751Y-115905620D01*
X160981934Y-115905841D01*
X160975923Y-115910813D01*
X160928572Y-115961236D01*
X160907689Y-115982118D01*
X160907677Y-115982132D01*
X160903421Y-115987617D01*
X160899637Y-115992047D01*
X160867737Y-116026018D01*
X160867736Y-116026020D01*
X160858084Y-116043576D01*
X160847410Y-116059826D01*
X160835129Y-116075661D01*
X160835124Y-116075668D01*
X160816615Y-116118438D01*
X160814045Y-116123684D01*
X160791603Y-116164506D01*
X160786622Y-116183907D01*
X160780321Y-116202310D01*
X160772362Y-116220702D01*
X160772361Y-116220705D01*
X160765071Y-116266727D01*
X160763887Y-116272446D01*
X160752301Y-116317572D01*
X160752300Y-116317582D01*
X160752300Y-116337616D01*
X160750773Y-116357015D01*
X160747640Y-116376794D01*
X160747640Y-116376795D01*
X160752025Y-116423183D01*
X160752300Y-116429021D01*
X160752300Y-116955960D01*
X160750575Y-116971577D01*
X160750861Y-116971604D01*
X160750126Y-116979370D01*
X160752300Y-117048519D01*
X160752300Y-117078048D01*
X160752301Y-117078065D01*
X160753168Y-117084936D01*
X160753626Y-117090755D01*
X160755090Y-117137329D01*
X160755091Y-117137332D01*
X160760680Y-117156572D01*
X160764624Y-117175616D01*
X160767136Y-117195497D01*
X160784290Y-117238824D01*
X160786182Y-117244352D01*
X160799182Y-117289095D01*
X160805720Y-117300151D01*
X160809380Y-117306339D01*
X160817938Y-117323808D01*
X160825314Y-117342437D01*
X160852698Y-117380128D01*
X160855906Y-117385012D01*
X160879627Y-117425121D01*
X160879633Y-117425129D01*
X160893790Y-117439285D01*
X160906428Y-117454081D01*
X160918205Y-117470291D01*
X160918206Y-117470292D01*
X160954109Y-117499993D01*
X160958420Y-117503915D01*
X161166868Y-117712363D01*
X161166869Y-117712364D01*
X161200354Y-117773687D01*
X161202508Y-117787078D01*
X161217126Y-117926159D01*
X161217127Y-117926162D01*
X161275618Y-118106180D01*
X161275621Y-118106187D01*
X161370267Y-118270119D01*
X161496928Y-118410791D01*
X161496929Y-118410791D01*
X161650065Y-118522051D01*
X161650070Y-118522054D01*
X161822992Y-118599045D01*
X161822997Y-118599047D01*
X162008154Y-118638403D01*
X162008155Y-118638403D01*
X162197444Y-118638403D01*
X162197446Y-118638403D01*
X162382603Y-118599047D01*
X162555530Y-118522054D01*
X162708671Y-118410791D01*
X162835333Y-118270119D01*
X162929979Y-118106187D01*
X162988474Y-117926159D01*
X163008260Y-117737903D01*
X162988474Y-117549647D01*
X162929979Y-117369619D01*
X162889870Y-117300148D01*
X162873398Y-117232251D01*
X162889869Y-117176155D01*
X162929979Y-117106684D01*
X162988474Y-116926656D01*
X163006121Y-116758745D01*
X163032705Y-116694132D01*
X163041752Y-116684036D01*
X171240125Y-108485664D01*
X171301444Y-108452182D01*
X171371136Y-108457166D01*
X171427069Y-108499038D01*
X171451486Y-108564502D01*
X171451801Y-108572742D01*
X171474999Y-113320668D01*
X171474999Y-121724999D01*
X171480195Y-121730195D01*
X171513680Y-121791518D01*
X171516513Y-121817270D01*
X171584738Y-135780361D01*
X171599627Y-138827761D01*
X171599858Y-138874894D01*
X171580501Y-138942029D01*
X171527921Y-138988041D01*
X171475859Y-138999500D01*
X145001440Y-138999500D01*
X144998576Y-138999434D01*
X144827238Y-138991512D01*
X144627459Y-138981697D01*
X144621933Y-138981177D01*
X144436689Y-138955337D01*
X144250189Y-138927672D01*
X144245090Y-138926696D01*
X144060654Y-138883317D01*
X143879812Y-138838018D01*
X143875173Y-138836662D01*
X143694459Y-138776093D01*
X143519685Y-138713558D01*
X143515527Y-138711899D01*
X143340547Y-138634638D01*
X143173034Y-138555410D01*
X143169371Y-138553527D01*
X143001857Y-138460221D01*
X142843044Y-138365032D01*
X142839879Y-138363002D01*
X142730371Y-138287989D01*
X142681392Y-138254437D01*
X142532632Y-138144109D01*
X142529989Y-138142034D01*
X142381980Y-138019129D01*
X142244688Y-137894695D01*
X142242484Y-137892596D01*
X142107402Y-137757514D01*
X142105314Y-137755321D01*
X141980876Y-137618027D01*
X141857957Y-137470001D01*
X141855897Y-137467377D01*
X141745559Y-137318603D01*
X141636996Y-137160119D01*
X141634966Y-137156954D01*
X141539778Y-136998142D01*
X141512261Y-136948740D01*
X141446457Y-136830601D01*
X141444588Y-136826964D01*
X141368808Y-136666741D01*
X141365370Y-136659474D01*
X141288100Y-136484471D01*
X141286450Y-136480339D01*
X141223916Y-136305568D01*
X141163327Y-136124797D01*
X141161989Y-136120221D01*
X141116675Y-135939315D01*
X141111402Y-135916895D01*
X141073294Y-135754871D01*
X141072329Y-135749828D01*
X141044668Y-135563357D01*
X141018819Y-135378048D01*
X141018302Y-135372549D01*
X141008495Y-135172950D01*
X141000566Y-135001423D01*
X141000533Y-135000000D01*
X141694652Y-135000000D01*
X141708962Y-135263942D01*
X141714028Y-135357368D01*
X141714029Y-135357385D01*
X141771926Y-135710539D01*
X141771932Y-135710565D01*
X141867672Y-136055392D01*
X141867674Y-136055399D01*
X142000142Y-136387870D01*
X142000151Y-136387888D01*
X142167784Y-136704077D01*
X142167787Y-136704082D01*
X142167789Y-136704085D01*
X142367164Y-136998142D01*
X142368634Y-137000309D01*
X142368641Y-137000319D01*
X142504377Y-137160119D01*
X142600332Y-137273086D01*
X142860163Y-137519211D01*
X143145081Y-137735800D01*
X143451747Y-137920315D01*
X143451749Y-137920316D01*
X143451751Y-137920317D01*
X143451755Y-137920319D01*
X143776552Y-138070585D01*
X143776565Y-138070591D01*
X144115726Y-138184868D01*
X144465254Y-138261805D01*
X144821052Y-138300500D01*
X144821058Y-138300500D01*
X145178942Y-138300500D01*
X145178948Y-138300500D01*
X145534746Y-138261805D01*
X145884274Y-138184868D01*
X146223435Y-138070591D01*
X146548253Y-137920315D01*
X146854919Y-137735800D01*
X147139837Y-137519211D01*
X147399668Y-137273086D01*
X147631365Y-137000311D01*
X147832211Y-136704085D01*
X147879047Y-136615743D01*
X154579500Y-136615743D01*
X154594925Y-136767439D01*
X154655837Y-136961579D01*
X154655844Y-136961594D01*
X154754589Y-137139499D01*
X154754592Y-137139504D01*
X154887132Y-137293893D01*
X154887134Y-137293895D01*
X155048037Y-137418445D01*
X155048038Y-137418445D01*
X155048042Y-137418448D01*
X155230729Y-137508060D01*
X155427715Y-137559063D01*
X155630936Y-137569369D01*
X155832071Y-137538556D01*
X156022887Y-137467886D01*
X156195571Y-137360252D01*
X156343053Y-137220059D01*
X156459295Y-137053049D01*
X156539540Y-136866058D01*
X156580500Y-136666741D01*
X156580500Y-136615743D01*
X163219500Y-136615743D01*
X163234925Y-136767439D01*
X163295837Y-136961579D01*
X163295844Y-136961594D01*
X163394589Y-137139499D01*
X163394592Y-137139504D01*
X163527132Y-137293893D01*
X163527134Y-137293895D01*
X163688037Y-137418445D01*
X163688038Y-137418445D01*
X163688042Y-137418448D01*
X163870729Y-137508060D01*
X164067715Y-137559063D01*
X164270936Y-137569369D01*
X164472071Y-137538556D01*
X164662887Y-137467886D01*
X164835571Y-137360252D01*
X164983053Y-137220059D01*
X165099295Y-137053049D01*
X165179540Y-136866058D01*
X165220500Y-136666741D01*
X165220500Y-135514258D01*
X165205732Y-135369027D01*
X165205074Y-135362560D01*
X165144162Y-135168420D01*
X165144160Y-135168416D01*
X165144159Y-135168412D01*
X165045409Y-134990498D01*
X165045408Y-134990497D01*
X165045407Y-134990495D01*
X164912867Y-134836106D01*
X164912865Y-134836104D01*
X164751962Y-134711554D01*
X164751959Y-134711553D01*
X164751958Y-134711552D01*
X164569271Y-134621940D01*
X164372285Y-134570937D01*
X164372287Y-134570937D01*
X164236804Y-134564066D01*
X164169064Y-134560631D01*
X164169063Y-134560631D01*
X164169061Y-134560631D01*
X163967936Y-134591442D01*
X163967924Y-134591445D01*
X163777118Y-134662111D01*
X163777111Y-134662115D01*
X163604432Y-134769745D01*
X163604427Y-134769749D01*
X163456949Y-134909938D01*
X163456948Y-134909940D01*
X163340705Y-135076949D01*
X163260459Y-135263943D01*
X163219500Y-135463258D01*
X163219500Y-136615743D01*
X156580500Y-136615743D01*
X156580500Y-135514258D01*
X156565732Y-135369027D01*
X156565074Y-135362560D01*
X156504162Y-135168420D01*
X156504160Y-135168416D01*
X156504159Y-135168412D01*
X156405409Y-134990498D01*
X156405408Y-134990497D01*
X156405407Y-134990495D01*
X156272867Y-134836106D01*
X156272865Y-134836104D01*
X156111962Y-134711554D01*
X156111959Y-134711553D01*
X156111958Y-134711552D01*
X155929271Y-134621940D01*
X155732285Y-134570937D01*
X155732287Y-134570937D01*
X155596804Y-134564066D01*
X155529064Y-134560631D01*
X155529063Y-134560631D01*
X155529061Y-134560631D01*
X155327936Y-134591442D01*
X155327924Y-134591445D01*
X155137118Y-134662111D01*
X155137111Y-134662115D01*
X154964432Y-134769745D01*
X154964427Y-134769749D01*
X154816949Y-134909938D01*
X154816948Y-134909940D01*
X154700705Y-135076949D01*
X154620459Y-135263943D01*
X154579500Y-135463258D01*
X154579500Y-136615743D01*
X147879047Y-136615743D01*
X147999853Y-136387880D01*
X148132324Y-136055403D01*
X148228071Y-135710552D01*
X148268613Y-135463258D01*
X148285970Y-135357385D01*
X148285970Y-135357382D01*
X148285972Y-135357371D01*
X148305348Y-135000000D01*
X148285972Y-134642629D01*
X148282580Y-134621940D01*
X148228073Y-134289460D01*
X148228072Y-134289459D01*
X148228071Y-134289448D01*
X148132324Y-133944597D01*
X147999853Y-133612120D01*
X147898348Y-133420662D01*
X147832215Y-133295922D01*
X147832213Y-133295919D01*
X147832211Y-133295915D01*
X147631365Y-132999689D01*
X147631361Y-132999684D01*
X147631358Y-132999680D01*
X147399668Y-132726914D01*
X147345105Y-132675229D01*
X147139837Y-132480789D01*
X147139830Y-132480783D01*
X147139827Y-132480781D01*
X147112990Y-132460380D01*
X154554500Y-132460380D01*
X154556510Y-132480789D01*
X154569337Y-132611031D01*
X154627978Y-132804345D01*
X154723198Y-132982488D01*
X154723203Y-132982495D01*
X154851352Y-133138647D01*
X154960016Y-133227824D01*
X155007506Y-133266798D01*
X155007509Y-133266799D01*
X155007511Y-133266801D01*
X155185654Y-133362021D01*
X155185656Y-133362021D01*
X155185659Y-133362023D01*
X155378967Y-133420662D01*
X155580000Y-133440462D01*
X155781033Y-133420662D01*
X155974341Y-133362023D01*
X156152494Y-133266798D01*
X156308647Y-133138647D01*
X156436798Y-132982494D01*
X156486138Y-132890184D01*
X156535100Y-132840342D01*
X156603237Y-132824881D01*
X156668917Y-132848712D01*
X156670905Y-132850205D01*
X156719767Y-132887698D01*
X156719769Y-132887699D01*
X156740270Y-132896190D01*
X156859764Y-132945687D01*
X156972280Y-132960500D01*
X156972287Y-132960500D01*
X157047713Y-132960500D01*
X157047720Y-132960500D01*
X157160236Y-132945687D01*
X157300233Y-132887698D01*
X157420451Y-132795451D01*
X157512698Y-132675233D01*
X157570687Y-132535236D01*
X157590466Y-132385000D01*
X162209534Y-132385000D01*
X162229312Y-132535234D01*
X162229313Y-132535236D01*
X162260708Y-132611031D01*
X162287302Y-132675233D01*
X162379549Y-132795451D01*
X162499767Y-132887698D01*
X162639764Y-132945687D01*
X162752280Y-132960500D01*
X162752287Y-132960500D01*
X162827713Y-132960500D01*
X162827720Y-132960500D01*
X162940236Y-132945687D01*
X163080233Y-132887698D01*
X163129017Y-132850263D01*
X163194183Y-132825069D01*
X163262628Y-132839106D01*
X163312619Y-132887919D01*
X163313861Y-132890185D01*
X163363200Y-132982492D01*
X163363203Y-132982495D01*
X163491352Y-133138647D01*
X163600016Y-133227824D01*
X163647506Y-133266798D01*
X163647509Y-133266799D01*
X163647511Y-133266801D01*
X163825654Y-133362021D01*
X163825656Y-133362021D01*
X163825659Y-133362023D01*
X164018967Y-133420662D01*
X164220000Y-133440462D01*
X164421033Y-133420662D01*
X164614341Y-133362023D01*
X164792494Y-133266798D01*
X164948647Y-133138647D01*
X165076798Y-132982494D01*
X165172023Y-132804341D01*
X165230662Y-132611033D01*
X165245500Y-132460380D01*
X165245500Y-131309620D01*
X165230662Y-131158967D01*
X165172023Y-130965659D01*
X165172021Y-130965656D01*
X165172021Y-130965654D01*
X165076801Y-130787511D01*
X165076799Y-130787509D01*
X165076798Y-130787506D01*
X164999391Y-130693185D01*
X164948647Y-130631352D01*
X164792495Y-130503203D01*
X164792488Y-130503198D01*
X164614345Y-130407978D01*
X164421031Y-130349337D01*
X164220000Y-130329538D01*
X164018968Y-130349337D01*
X163825654Y-130407978D01*
X163647511Y-130503198D01*
X163647504Y-130503203D01*
X163491352Y-130631352D01*
X163363203Y-130787504D01*
X163363198Y-130787511D01*
X163267978Y-130965654D01*
X163209337Y-131158968D01*
X163194500Y-131309623D01*
X163194500Y-131744053D01*
X163174815Y-131811092D01*
X163122011Y-131856847D01*
X163052853Y-131866791D01*
X163023048Y-131858614D01*
X162940239Y-131824314D01*
X162940237Y-131824313D01*
X162940236Y-131824313D01*
X162926171Y-131822461D01*
X162827727Y-131809500D01*
X162827720Y-131809500D01*
X162752280Y-131809500D01*
X162752272Y-131809500D01*
X162639764Y-131824313D01*
X162639763Y-131824313D01*
X162499770Y-131882300D01*
X162379549Y-131974549D01*
X162287300Y-132094770D01*
X162229313Y-132234763D01*
X162229312Y-132234765D01*
X162209534Y-132384999D01*
X162209534Y-132385000D01*
X157590466Y-132385000D01*
X157570687Y-132234764D01*
X157512698Y-132094767D01*
X157420451Y-131974549D01*
X157300233Y-131882302D01*
X157300229Y-131882300D01*
X157236801Y-131856027D01*
X157160236Y-131824313D01*
X157146171Y-131822461D01*
X157047727Y-131809500D01*
X157047720Y-131809500D01*
X156972280Y-131809500D01*
X156972272Y-131809500D01*
X156859764Y-131824313D01*
X156859760Y-131824314D01*
X156776952Y-131858614D01*
X156707483Y-131866083D01*
X156645004Y-131834807D01*
X156609352Y-131774718D01*
X156605500Y-131744053D01*
X156605500Y-131309623D01*
X156590662Y-131158968D01*
X156532021Y-130965654D01*
X156436801Y-130787511D01*
X156436799Y-130787509D01*
X156436798Y-130787506D01*
X156359391Y-130693185D01*
X156308647Y-130631352D01*
X156152495Y-130503203D01*
X156152488Y-130503198D01*
X155974345Y-130407978D01*
X155781031Y-130349337D01*
X155580000Y-130329538D01*
X155378968Y-130349337D01*
X155185654Y-130407978D01*
X155007511Y-130503198D01*
X155007504Y-130503203D01*
X154851352Y-130631352D01*
X154723203Y-130787504D01*
X154723198Y-130787511D01*
X154627978Y-130965654D01*
X154569337Y-131158968D01*
X154558162Y-131272433D01*
X154554500Y-131309620D01*
X154554500Y-132460380D01*
X147112990Y-132460380D01*
X147072245Y-132429407D01*
X146854919Y-132264200D01*
X146548253Y-132079685D01*
X146548252Y-132079684D01*
X146548248Y-132079682D01*
X146548244Y-132079680D01*
X146223447Y-131929414D01*
X146223441Y-131929411D01*
X146223435Y-131929409D01*
X146013324Y-131858614D01*
X145884273Y-131815131D01*
X145534744Y-131738194D01*
X145178949Y-131699500D01*
X145178948Y-131699500D01*
X144821052Y-131699500D01*
X144821050Y-131699500D01*
X144465255Y-131738194D01*
X144115726Y-131815131D01*
X143916373Y-131882302D01*
X143776565Y-131929409D01*
X143776562Y-131929410D01*
X143776563Y-131929410D01*
X143776552Y-131929414D01*
X143451755Y-132079680D01*
X143451751Y-132079682D01*
X143223367Y-132217096D01*
X143145081Y-132264200D01*
X143056768Y-132331333D01*
X142860172Y-132480781D01*
X142860163Y-132480789D01*
X142600331Y-132726914D01*
X142368641Y-132999680D01*
X142368634Y-132999690D01*
X142167790Y-133295913D01*
X142167784Y-133295922D01*
X142000151Y-133612111D01*
X142000142Y-133612129D01*
X141867674Y-133944600D01*
X141867672Y-133944607D01*
X141771932Y-134289434D01*
X141771926Y-134289460D01*
X141714029Y-134642614D01*
X141714028Y-134642627D01*
X141714028Y-134642629D01*
X141694652Y-135000000D01*
X141000533Y-135000000D01*
X141000500Y-134998560D01*
X141000500Y-129735500D01*
X158570040Y-129735500D01*
X158589826Y-129923756D01*
X158589827Y-129923759D01*
X158648318Y-130103777D01*
X158648321Y-130103784D01*
X158742967Y-130267716D01*
X158798632Y-130329538D01*
X158869629Y-130408388D01*
X159022765Y-130519648D01*
X159022770Y-130519651D01*
X159195692Y-130596642D01*
X159195697Y-130596644D01*
X159380854Y-130636000D01*
X159546129Y-130636000D01*
X159595370Y-130646196D01*
X159612105Y-130653438D01*
X159658129Y-130660726D01*
X159663832Y-130661907D01*
X159708981Y-130673500D01*
X159729016Y-130673500D01*
X159748413Y-130675026D01*
X159768196Y-130678160D01*
X159814583Y-130673775D01*
X159820422Y-130673500D01*
X160941852Y-130673500D01*
X161008891Y-130693185D01*
X161034000Y-130714526D01*
X161039726Y-130720885D01*
X161039730Y-130720889D01*
X161192865Y-130832148D01*
X161192870Y-130832151D01*
X161365792Y-130909142D01*
X161365797Y-130909144D01*
X161550954Y-130948500D01*
X161550955Y-130948500D01*
X161740244Y-130948500D01*
X161740246Y-130948500D01*
X161925403Y-130909144D01*
X162098330Y-130832151D01*
X162251471Y-130720888D01*
X162378133Y-130580216D01*
X162472779Y-130416284D01*
X162531274Y-130236256D01*
X162551060Y-130048000D01*
X162531274Y-129859744D01*
X162472779Y-129679716D01*
X162378133Y-129515784D01*
X162251471Y-129375112D01*
X162251470Y-129375111D01*
X162098334Y-129263851D01*
X162098329Y-129263848D01*
X161925407Y-129186857D01*
X161925402Y-129186855D01*
X161779601Y-129155865D01*
X161740246Y-129147500D01*
X161550954Y-129147500D01*
X161518497Y-129154398D01*
X161365797Y-129186855D01*
X161365792Y-129186857D01*
X161192870Y-129263848D01*
X161192865Y-129263851D01*
X161039730Y-129375110D01*
X161039726Y-129375114D01*
X161034000Y-129381474D01*
X160974513Y-129418121D01*
X160941852Y-129422500D01*
X160406188Y-129422500D01*
X160339149Y-129402815D01*
X160298801Y-129360499D01*
X160208036Y-129203288D01*
X160208034Y-129203285D01*
X160081370Y-129062611D01*
X159928234Y-128951351D01*
X159928229Y-128951348D01*
X159755307Y-128874357D01*
X159755302Y-128874355D01*
X159609500Y-128843365D01*
X159570146Y-128835000D01*
X159380854Y-128835000D01*
X159348397Y-128841898D01*
X159195697Y-128874355D01*
X159195692Y-128874357D01*
X159022770Y-128951348D01*
X159022765Y-128951351D01*
X158869629Y-129062611D01*
X158742966Y-129203285D01*
X158648321Y-129367215D01*
X158648318Y-129367222D01*
X158589827Y-129547240D01*
X158589826Y-129547244D01*
X158570040Y-129735500D01*
X141000500Y-129735500D01*
X141000500Y-81453432D01*
X141020185Y-81386393D01*
X141072989Y-81340638D01*
X141124336Y-81329432D01*
X153375844Y-81313765D01*
X153442906Y-81333364D01*
X153488728Y-81386109D01*
X153496437Y-81421437D01*
X153500000Y-81425000D01*
X166499999Y-81425000D01*
X166500000Y-81425000D01*
X166500000Y-81420823D01*
X166519685Y-81353784D01*
X166572489Y-81308029D01*
X166623834Y-81296824D01*
X178875345Y-81281157D01*
X178942406Y-81300755D01*
G37*
%TD.AperFunction*%
%TD*%
M02*
