%TF.GenerationSoftware,KiCad,Pcbnew,7.0.7*%
%TF.CreationDate,2023-08-28T22:10:07-07:00*%
%TF.ProjectId,Untitled,556e7469-746c-4656-942e-6b696361645f,rev?*%
%TF.SameCoordinates,Original*%
%TF.FileFunction,Legend,Bot*%
%TF.FilePolarity,Positive*%
%FSLAX46Y46*%
G04 Gerber Fmt 4.6, Leading zero omitted, Abs format (unit mm)*
G04 Created by KiCad (PCBNEW 7.0.7) date 2023-08-28 22:10:07*
%MOMM*%
%LPD*%
G01*
G04 APERTURE LIST*
G04 APERTURE END LIST*
%TO.C,G\u002A\u002A\u002A*%
G36*
X179071905Y-106324400D02*
G01*
X179071905Y-117755543D01*
X160020000Y-117755543D01*
X140968095Y-117755543D01*
X140968095Y-107725159D01*
X152964013Y-107725159D01*
X152964025Y-107944143D01*
X152964062Y-108159233D01*
X152964124Y-108369911D01*
X152964211Y-108575660D01*
X152964323Y-108775963D01*
X152964461Y-108970303D01*
X152964625Y-109158162D01*
X152964815Y-109339023D01*
X152965032Y-109512369D01*
X152965276Y-109677683D01*
X152965547Y-109834448D01*
X152965846Y-109982147D01*
X152966173Y-110120261D01*
X152966529Y-110248275D01*
X152966913Y-110365671D01*
X152967327Y-110471931D01*
X152967770Y-110566539D01*
X152968242Y-110648977D01*
X152968745Y-110718729D01*
X152969279Y-110775276D01*
X152969843Y-110818102D01*
X152970438Y-110846690D01*
X152970718Y-110854799D01*
X152981172Y-111047553D01*
X152995769Y-111229811D01*
X153015031Y-111405883D01*
X153039482Y-111580078D01*
X153069645Y-111756705D01*
X153097334Y-111898256D01*
X153165652Y-112193088D01*
X153248730Y-112485231D01*
X153346193Y-112773808D01*
X153457668Y-113057942D01*
X153582782Y-113336759D01*
X153721159Y-113609380D01*
X153872427Y-113874931D01*
X154036212Y-114132535D01*
X154074555Y-114189026D01*
X154250033Y-114431444D01*
X154438617Y-114667078D01*
X154639285Y-114894865D01*
X154851013Y-115113740D01*
X155072782Y-115322638D01*
X155303567Y-115520495D01*
X155504870Y-115678304D01*
X155754429Y-115856351D01*
X156012517Y-116021943D01*
X156278474Y-116174784D01*
X156551640Y-116314580D01*
X156831356Y-116441035D01*
X157116962Y-116553855D01*
X157407797Y-116652744D01*
X157703202Y-116737407D01*
X158002518Y-116807549D01*
X158053041Y-116817868D01*
X158177580Y-116841671D01*
X158298047Y-116862315D01*
X158417433Y-116880165D01*
X158538727Y-116895586D01*
X158664918Y-116908944D01*
X158798995Y-116920603D01*
X158943948Y-116930928D01*
X159014059Y-116935269D01*
X159026900Y-116935571D01*
X159054010Y-116935838D01*
X159094414Y-116936067D01*
X159147139Y-116936260D01*
X159211213Y-116936414D01*
X159285661Y-116936528D01*
X159369510Y-116936603D01*
X159461787Y-116936636D01*
X159561518Y-116936627D01*
X159667730Y-116936575D01*
X159779450Y-116936480D01*
X159895705Y-116936340D01*
X159997137Y-116936185D01*
X160161685Y-116935845D01*
X160311276Y-116935399D01*
X160446195Y-116934844D01*
X160566727Y-116934177D01*
X160673155Y-116933395D01*
X160765765Y-116932495D01*
X160844841Y-116931474D01*
X160910667Y-116930330D01*
X160963529Y-116929060D01*
X161003710Y-116927660D01*
X161031495Y-116926128D01*
X161037371Y-116925650D01*
X161145711Y-116915254D01*
X161253309Y-116903801D01*
X161356555Y-116891713D01*
X161451836Y-116879415D01*
X161535539Y-116867328D01*
X161536341Y-116867204D01*
X161840191Y-116812606D01*
X162139658Y-116743564D01*
X162434303Y-116660360D01*
X162723684Y-116563273D01*
X163007360Y-116452585D01*
X163284891Y-116328574D01*
X163555837Y-116191522D01*
X163819755Y-116041708D01*
X164076206Y-115879413D01*
X164324749Y-115704918D01*
X164564943Y-115518501D01*
X164796347Y-115320445D01*
X165018520Y-115111028D01*
X165231021Y-114890531D01*
X165433411Y-114659235D01*
X165625247Y-114417419D01*
X165806090Y-114165364D01*
X165821405Y-114142787D01*
X165909068Y-114009910D01*
X165989738Y-113880869D01*
X166065691Y-113751706D01*
X166139202Y-113618466D01*
X166212547Y-113477190D01*
X166265403Y-113370584D01*
X166394524Y-113088505D01*
X166509099Y-112801900D01*
X166609085Y-112510924D01*
X166694438Y-112215732D01*
X166765113Y-111916481D01*
X166821067Y-111613324D01*
X166862253Y-111306418D01*
X166866891Y-111262653D01*
X166869004Y-111242182D01*
X166871019Y-111222747D01*
X166872938Y-111203970D01*
X166874763Y-111185474D01*
X166876496Y-111166879D01*
X166878139Y-111147809D01*
X166879696Y-111127883D01*
X166881168Y-111106726D01*
X166882558Y-111083957D01*
X166883868Y-111059199D01*
X166885100Y-111032074D01*
X166886257Y-111002204D01*
X166887342Y-110969210D01*
X166888356Y-110932713D01*
X166889302Y-110892337D01*
X166890182Y-110847703D01*
X166890999Y-110798431D01*
X166891755Y-110744145D01*
X166892453Y-110684466D01*
X166893094Y-110619016D01*
X166893681Y-110547417D01*
X166894216Y-110469289D01*
X166894703Y-110384256D01*
X166895142Y-110291939D01*
X166895538Y-110191960D01*
X166895891Y-110083940D01*
X166896204Y-109967502D01*
X166896480Y-109842266D01*
X166896721Y-109707856D01*
X166896929Y-109563892D01*
X166897107Y-109409996D01*
X166897257Y-109245791D01*
X166897381Y-109070898D01*
X166897483Y-108884939D01*
X166897563Y-108687535D01*
X166897625Y-108478309D01*
X166897671Y-108256882D01*
X166897703Y-108022876D01*
X166897723Y-107775912D01*
X166897735Y-107515613D01*
X166897740Y-107241601D01*
X166897740Y-106953497D01*
X166897739Y-106650922D01*
X166897737Y-106333499D01*
X166897737Y-106320589D01*
X166897738Y-106002569D01*
X166897740Y-105699413D01*
X166897740Y-105410741D01*
X166897735Y-105136177D01*
X166897724Y-104875341D01*
X166897704Y-104627855D01*
X166897672Y-104393342D01*
X166897627Y-104171423D01*
X166897566Y-103961720D01*
X166897486Y-103763854D01*
X166897386Y-103577448D01*
X166897262Y-103402123D01*
X166897113Y-103237500D01*
X166896937Y-103083203D01*
X166896730Y-102938852D01*
X166896490Y-102804070D01*
X166896216Y-102678477D01*
X166895904Y-102561697D01*
X166895552Y-102453350D01*
X166895159Y-102353059D01*
X166894721Y-102260445D01*
X166894237Y-102175130D01*
X166893703Y-102096736D01*
X166893118Y-102024884D01*
X166892479Y-101959197D01*
X166891784Y-101899297D01*
X166891030Y-101844804D01*
X166890216Y-101795341D01*
X166889338Y-101750529D01*
X166888395Y-101709991D01*
X166887383Y-101673348D01*
X166886302Y-101640222D01*
X166885147Y-101610235D01*
X166883918Y-101583008D01*
X166882611Y-101558164D01*
X166881225Y-101535323D01*
X166879756Y-101514109D01*
X166878203Y-101494142D01*
X166876562Y-101475045D01*
X166874833Y-101456438D01*
X166873012Y-101437945D01*
X166871097Y-101419187D01*
X166869086Y-101399785D01*
X166866976Y-101379362D01*
X166866891Y-101378525D01*
X166827908Y-101072551D01*
X166774063Y-100769486D01*
X166705544Y-100469856D01*
X166622543Y-100174184D01*
X166525251Y-99882997D01*
X166413858Y-99596818D01*
X166288554Y-99316174D01*
X166149530Y-99041588D01*
X165996977Y-98773585D01*
X165831085Y-98512691D01*
X165821117Y-98497877D01*
X165642133Y-98246040D01*
X165452095Y-98004307D01*
X165251470Y-97772958D01*
X165040725Y-97552277D01*
X164820324Y-97342547D01*
X164590734Y-97144051D01*
X164352421Y-96957070D01*
X164105851Y-96781887D01*
X163851489Y-96618785D01*
X163589802Y-96468047D01*
X163321255Y-96329955D01*
X163046315Y-96204792D01*
X162765447Y-96092841D01*
X162479118Y-95994383D01*
X162187792Y-95909702D01*
X161891937Y-95839081D01*
X161592018Y-95782801D01*
X161288501Y-95741146D01*
X161273425Y-95739472D01*
X161228158Y-95734539D01*
X161186219Y-95730098D01*
X161146607Y-95726124D01*
X161108318Y-95722590D01*
X161070350Y-95719471D01*
X161031701Y-95716741D01*
X160991369Y-95714374D01*
X160948352Y-95712344D01*
X160901646Y-95710625D01*
X160850250Y-95709192D01*
X160793161Y-95708019D01*
X160729377Y-95707079D01*
X160657895Y-95706346D01*
X160577714Y-95705796D01*
X160487831Y-95705402D01*
X160387243Y-95705139D01*
X160274948Y-95704979D01*
X160149944Y-95704898D01*
X160011229Y-95704870D01*
X159932361Y-95704868D01*
X159786025Y-95704879D01*
X159653928Y-95704928D01*
X159535068Y-95705043D01*
X159428443Y-95705249D01*
X159333050Y-95705571D01*
X159247886Y-95706036D01*
X159171950Y-95706669D01*
X159104239Y-95707496D01*
X159043751Y-95708544D01*
X158989483Y-95709837D01*
X158940433Y-95711402D01*
X158895599Y-95713265D01*
X158853978Y-95715451D01*
X158814568Y-95717987D01*
X158776367Y-95720898D01*
X158738372Y-95724210D01*
X158699581Y-95727950D01*
X158658992Y-95732142D01*
X158615602Y-95736812D01*
X158591297Y-95739472D01*
X158287214Y-95780475D01*
X157986220Y-95836285D01*
X157688794Y-95906696D01*
X157395411Y-95991499D01*
X157106549Y-96090486D01*
X156822685Y-96203450D01*
X156544296Y-96330183D01*
X156271860Y-96470476D01*
X156005852Y-96624123D01*
X155746752Y-96790914D01*
X155495034Y-96970643D01*
X155251178Y-97163100D01*
X155173195Y-97228784D01*
X155095883Y-97296717D01*
X155011979Y-97373590D01*
X154924470Y-97456493D01*
X154836347Y-97542513D01*
X154750597Y-97628738D01*
X154670209Y-97712255D01*
X154605979Y-97781525D01*
X154403590Y-98015722D01*
X154213491Y-98258701D01*
X154035913Y-98509972D01*
X153871088Y-98769042D01*
X153719247Y-99035419D01*
X153580621Y-99308610D01*
X153455441Y-99588123D01*
X153343940Y-99873467D01*
X153246348Y-100164149D01*
X153162896Y-100459677D01*
X153093817Y-100759559D01*
X153039340Y-101063302D01*
X153028287Y-101137970D01*
X153018337Y-101211736D01*
X153008720Y-101290808D01*
X152999182Y-101377526D01*
X152989469Y-101474234D01*
X152979325Y-101583272D01*
X152976850Y-101610958D01*
X152976216Y-101625698D01*
X152975594Y-101655162D01*
X152974984Y-101698833D01*
X152974387Y-101756194D01*
X152973803Y-101826728D01*
X152973232Y-101909917D01*
X152972675Y-102005245D01*
X152972132Y-102112194D01*
X152971604Y-102230246D01*
X152971090Y-102358886D01*
X152970591Y-102497595D01*
X152970107Y-102645857D01*
X152969639Y-102803154D01*
X152969188Y-102968969D01*
X152968753Y-103142784D01*
X152968334Y-103324084D01*
X152967933Y-103512349D01*
X152967549Y-103707065D01*
X152967182Y-103907712D01*
X152966834Y-104113774D01*
X152966505Y-104324733D01*
X152966194Y-104540073D01*
X152965903Y-104759277D01*
X152965631Y-104981826D01*
X152965378Y-105207205D01*
X152965146Y-105434895D01*
X152964935Y-105664380D01*
X152964744Y-105895142D01*
X152964575Y-106126664D01*
X152964427Y-106358429D01*
X152964301Y-106589920D01*
X152964198Y-106820619D01*
X152964117Y-107050010D01*
X152964059Y-107277575D01*
X152964024Y-107502797D01*
X152964013Y-107725159D01*
X140968095Y-107725159D01*
X140968095Y-106324400D01*
X140968095Y-94893257D01*
X160020000Y-94893257D01*
X179071905Y-94893257D01*
X179071905Y-106324400D01*
G37*
G36*
X161509859Y-100663023D02*
G01*
X161659540Y-100836038D01*
X161806791Y-101006245D01*
X161951293Y-101173276D01*
X162092729Y-101336763D01*
X162230779Y-101496337D01*
X162365125Y-101651631D01*
X162495449Y-101802276D01*
X162621432Y-101947904D01*
X162742755Y-102088147D01*
X162859101Y-102222637D01*
X162970151Y-102351006D01*
X163075586Y-102472886D01*
X163175089Y-102587908D01*
X163268339Y-102695704D01*
X163355020Y-102795907D01*
X163434812Y-102888148D01*
X163507397Y-102972059D01*
X163572457Y-103047271D01*
X163629673Y-103113418D01*
X163678727Y-103170130D01*
X163719300Y-103217040D01*
X163751074Y-103253779D01*
X163773731Y-103279979D01*
X163786951Y-103295273D01*
X163790393Y-103299261D01*
X163815183Y-103328103D01*
X162252975Y-104858640D01*
X162123281Y-104985718D01*
X161996436Y-105110031D01*
X161872872Y-105231154D01*
X161753019Y-105348666D01*
X161637307Y-105462143D01*
X161526167Y-105571163D01*
X161420028Y-105675304D01*
X161319323Y-105774142D01*
X161224480Y-105867254D01*
X161135930Y-105954218D01*
X161054104Y-106034611D01*
X160979432Y-106108010D01*
X160912345Y-106173993D01*
X160853272Y-106232137D01*
X160802645Y-106282019D01*
X160760894Y-106323215D01*
X160728449Y-106355305D01*
X160705740Y-106377864D01*
X160693198Y-106390470D01*
X160690697Y-106393142D01*
X160695995Y-106398805D01*
X160711618Y-106414848D01*
X160737143Y-106440844D01*
X160772148Y-106476368D01*
X160816209Y-106520991D01*
X160868904Y-106574288D01*
X160929810Y-106635833D01*
X160998503Y-106705198D01*
X161074561Y-106781957D01*
X161157561Y-106865683D01*
X161247080Y-106955951D01*
X161342694Y-107052332D01*
X161443982Y-107154402D01*
X161550521Y-107261732D01*
X161661886Y-107373898D01*
X161777656Y-107490471D01*
X161897407Y-107611026D01*
X162020716Y-107735136D01*
X162147162Y-107862374D01*
X162245790Y-107961602D01*
X162416849Y-108133732D01*
X162577244Y-108295221D01*
X162727097Y-108446195D01*
X162866532Y-108586778D01*
X162995672Y-108717097D01*
X163114640Y-108837277D01*
X163223561Y-108947444D01*
X163322557Y-109047722D01*
X163411752Y-109138237D01*
X163491269Y-109219115D01*
X163561232Y-109290481D01*
X163621765Y-109352460D01*
X163672989Y-109405179D01*
X163715030Y-109448762D01*
X163748010Y-109483334D01*
X163772053Y-109509022D01*
X163787283Y-109525950D01*
X163793822Y-109534245D01*
X163794078Y-109535134D01*
X163788637Y-109541788D01*
X163773858Y-109559746D01*
X163750109Y-109588561D01*
X163717758Y-109627788D01*
X163677175Y-109676981D01*
X163628727Y-109735692D01*
X163572784Y-109803477D01*
X163509714Y-109879887D01*
X163439886Y-109964478D01*
X163363668Y-110056803D01*
X163281428Y-110156415D01*
X163193537Y-110262869D01*
X163100361Y-110375718D01*
X163002270Y-110494515D01*
X162899632Y-110618815D01*
X162792817Y-110748171D01*
X162682191Y-110882136D01*
X162568125Y-111020265D01*
X162450987Y-111162112D01*
X162331145Y-111307229D01*
X162208968Y-111455171D01*
X162084824Y-111605491D01*
X161959083Y-111757744D01*
X161832112Y-111911482D01*
X161704280Y-112066259D01*
X161575957Y-112221630D01*
X161447510Y-112377148D01*
X161319309Y-112532366D01*
X161191721Y-112686839D01*
X161065116Y-112840119D01*
X160939861Y-112991761D01*
X160816326Y-113141319D01*
X160694880Y-113288345D01*
X160575890Y-113432395D01*
X160459726Y-113573021D01*
X160346755Y-113709777D01*
X160237348Y-113842218D01*
X160131871Y-113969895D01*
X160030695Y-114092365D01*
X159934187Y-114209179D01*
X159842716Y-114319892D01*
X159756650Y-114424057D01*
X159676359Y-114521229D01*
X159602211Y-114610961D01*
X159534575Y-114692806D01*
X159473818Y-114766318D01*
X159420310Y-114831052D01*
X159374420Y-114886560D01*
X159336515Y-114932396D01*
X159306965Y-114968115D01*
X159286138Y-114993270D01*
X159274403Y-115007414D01*
X159271880Y-115010428D01*
X159250303Y-115035461D01*
X159250303Y-111422320D01*
X159250288Y-111161360D01*
X159250246Y-110907403D01*
X159250176Y-110660806D01*
X159250079Y-110421924D01*
X159249956Y-110191111D01*
X159249808Y-109968725D01*
X159249635Y-109755120D01*
X159249437Y-109550651D01*
X159249217Y-109355675D01*
X159248973Y-109170547D01*
X159248708Y-108995623D01*
X159248421Y-108831258D01*
X159248113Y-108677807D01*
X159247785Y-108535627D01*
X159247438Y-108405072D01*
X159247072Y-108286499D01*
X159246687Y-108180262D01*
X159246286Y-108086718D01*
X159245868Y-108006222D01*
X159245434Y-107939130D01*
X159244984Y-107885796D01*
X159244520Y-107846577D01*
X159244041Y-107821828D01*
X159243550Y-107811905D01*
X159243465Y-107811718D01*
X159237457Y-107817215D01*
X159221057Y-107832906D01*
X159194755Y-107858311D01*
X159159040Y-107892953D01*
X159114404Y-107936353D01*
X159061334Y-107988033D01*
X159000323Y-108047513D01*
X158931858Y-108114317D01*
X158856431Y-108187965D01*
X158774532Y-108267979D01*
X158686649Y-108353881D01*
X158593273Y-108445192D01*
X158494895Y-108541433D01*
X158392003Y-108642127D01*
X158285088Y-108746795D01*
X158174640Y-108854958D01*
X158061148Y-108966139D01*
X158015652Y-109010718D01*
X157901104Y-109122935D01*
X157789401Y-109232303D01*
X157681034Y-109338344D01*
X157576493Y-109440581D01*
X157476268Y-109538537D01*
X157380848Y-109631734D01*
X157290723Y-109719696D01*
X157206385Y-109801944D01*
X157128321Y-109878003D01*
X157057023Y-109947393D01*
X156992981Y-110009639D01*
X156936683Y-110064263D01*
X156888621Y-110110787D01*
X156849284Y-110148735D01*
X156819162Y-110177629D01*
X156798746Y-110196991D01*
X156788524Y-110206345D01*
X156787402Y-110207178D01*
X156781027Y-110201863D01*
X156764851Y-110186482D01*
X156739719Y-110161881D01*
X156706472Y-110128902D01*
X156665952Y-110088393D01*
X156619003Y-110041196D01*
X156566467Y-109988158D01*
X156509186Y-109930123D01*
X156448002Y-109867936D01*
X156383759Y-109802442D01*
X156380845Y-109799467D01*
X155981562Y-109391756D01*
X156074633Y-109299005D01*
X156088194Y-109285585D01*
X156112155Y-109261980D01*
X156146030Y-109228670D01*
X156189330Y-109186132D01*
X156241567Y-109134847D01*
X156302251Y-109075292D01*
X156370895Y-109007947D01*
X156447011Y-108933291D01*
X156530109Y-108851802D01*
X156619702Y-108763960D01*
X156715301Y-108670242D01*
X156816418Y-108571129D01*
X156922563Y-108467099D01*
X157033250Y-108358630D01*
X157147989Y-108246203D01*
X157266292Y-108130294D01*
X157387671Y-108011385D01*
X157511637Y-107889952D01*
X157604218Y-107799271D01*
X157660661Y-107743972D01*
X160401038Y-107743972D01*
X160401038Y-109787013D01*
X160401038Y-111830054D01*
X160418987Y-111811175D01*
X160425626Y-111803428D01*
X160441476Y-111784514D01*
X160466050Y-111755022D01*
X160498860Y-111715542D01*
X160539417Y-111666664D01*
X160587235Y-111608977D01*
X160641824Y-111543070D01*
X160702697Y-111469534D01*
X160769366Y-111388958D01*
X160841344Y-111301931D01*
X160918141Y-111209043D01*
X160999270Y-111110884D01*
X161084244Y-111008043D01*
X161172574Y-110901109D01*
X161263773Y-110790673D01*
X161341986Y-110695938D01*
X162247035Y-109599579D01*
X161985055Y-109335632D01*
X161944710Y-109295002D01*
X161894650Y-109244621D01*
X161835917Y-109185534D01*
X161769553Y-109118789D01*
X161696597Y-109045432D01*
X161618093Y-108966510D01*
X161535080Y-108883070D01*
X161448600Y-108796158D01*
X161359696Y-108706822D01*
X161269407Y-108616107D01*
X161178776Y-108525061D01*
X161088843Y-108434730D01*
X161062056Y-108407828D01*
X160401038Y-107743972D01*
X157660661Y-107743972D01*
X157728567Y-107677442D01*
X157850046Y-107558353D01*
X157968204Y-107442448D01*
X158082593Y-107330169D01*
X158192763Y-107221960D01*
X158298266Y-107118264D01*
X158398652Y-107019524D01*
X158493472Y-106926183D01*
X158582276Y-106838684D01*
X158664615Y-106757470D01*
X158740041Y-106682984D01*
X158808103Y-106615670D01*
X158868353Y-106555970D01*
X158920341Y-106504327D01*
X158963618Y-106461184D01*
X158997736Y-106426985D01*
X159022243Y-106402173D01*
X159036693Y-106387190D01*
X159040732Y-106382499D01*
X159035427Y-106376346D01*
X159019796Y-106359822D01*
X158994267Y-106333358D01*
X158959265Y-106297387D01*
X158915216Y-106252340D01*
X158862547Y-106198649D01*
X158801685Y-106136746D01*
X158733056Y-106067062D01*
X158657086Y-105990029D01*
X158574201Y-105906079D01*
X158484829Y-105815643D01*
X158389394Y-105719154D01*
X158288325Y-105617042D01*
X158182047Y-105509741D01*
X158070986Y-105397681D01*
X157955569Y-105281294D01*
X157836222Y-105161012D01*
X157713372Y-105037267D01*
X157587445Y-104910491D01*
X157508959Y-104831508D01*
X157381402Y-104703138D01*
X157256680Y-104577564D01*
X157135217Y-104455217D01*
X157017438Y-104336526D01*
X156903769Y-104221922D01*
X156794635Y-104111835D01*
X156690461Y-104006695D01*
X156591673Y-103906931D01*
X156498695Y-103812975D01*
X156411953Y-103725256D01*
X156331872Y-103644204D01*
X156258877Y-103570249D01*
X156193393Y-103503822D01*
X156135846Y-103445353D01*
X156086661Y-103395271D01*
X156046263Y-103354007D01*
X156015077Y-103321991D01*
X155993528Y-103299653D01*
X155982043Y-103287423D01*
X155980161Y-103285106D01*
X155985926Y-103279033D01*
X156001680Y-103263083D01*
X156026577Y-103238101D01*
X156059770Y-103204929D01*
X156100412Y-103164411D01*
X156147657Y-103117388D01*
X156200659Y-103064705D01*
X156258570Y-103007205D01*
X156320546Y-102945730D01*
X156385739Y-102881124D01*
X156388771Y-102878121D01*
X156794406Y-102476336D01*
X158016562Y-103706879D01*
X158130391Y-103821464D01*
X158241403Y-103933164D01*
X158349120Y-104041499D01*
X158453063Y-104145990D01*
X158552751Y-104246154D01*
X158647706Y-104341514D01*
X158737448Y-104431587D01*
X158821499Y-104515895D01*
X158899379Y-104593956D01*
X158970608Y-104665291D01*
X159034709Y-104729418D01*
X159091200Y-104785859D01*
X159139604Y-104834133D01*
X159179441Y-104873759D01*
X159210232Y-104904257D01*
X159231497Y-104925148D01*
X159242757Y-104935950D01*
X159244502Y-104937421D01*
X159244889Y-104929880D01*
X159245279Y-104907578D01*
X159245669Y-104870995D01*
X159246059Y-104820610D01*
X159246447Y-104756905D01*
X159246832Y-104680359D01*
X159247214Y-104591452D01*
X159247592Y-104490665D01*
X159247963Y-104378478D01*
X159248327Y-104255370D01*
X159248684Y-104121823D01*
X159249031Y-103978316D01*
X159249369Y-103825328D01*
X159249695Y-103663342D01*
X159250009Y-103492836D01*
X159250310Y-103314291D01*
X159250596Y-103128187D01*
X159250634Y-103100817D01*
X160401038Y-103100817D01*
X160401054Y-103272173D01*
X160401100Y-103439503D01*
X160401177Y-103602172D01*
X160401281Y-103759540D01*
X160401412Y-103910971D01*
X160401569Y-104055826D01*
X160401749Y-104193468D01*
X160401953Y-104323260D01*
X160402178Y-104444563D01*
X160402423Y-104556740D01*
X160402686Y-104659153D01*
X160402967Y-104751165D01*
X160403264Y-104832138D01*
X160403576Y-104901434D01*
X160403901Y-104958416D01*
X160404238Y-105002446D01*
X160404586Y-105032886D01*
X160404943Y-105049099D01*
X160405157Y-105051732D01*
X160410954Y-105046487D01*
X160427064Y-105031118D01*
X160452920Y-105006180D01*
X160487955Y-104972224D01*
X160531604Y-104929802D01*
X160583301Y-104879469D01*
X160642479Y-104821775D01*
X160708572Y-104757274D01*
X160781014Y-104686518D01*
X160859238Y-104610060D01*
X160942680Y-104528452D01*
X161030771Y-104442248D01*
X161122947Y-104351998D01*
X161218640Y-104258257D01*
X161317285Y-104161576D01*
X161319915Y-104158998D01*
X161418593Y-104062210D01*
X161514263Y-103968275D01*
X161606362Y-103877749D01*
X161694329Y-103791189D01*
X161777600Y-103709151D01*
X161855615Y-103632192D01*
X161927809Y-103560868D01*
X161993622Y-103495736D01*
X162052490Y-103437352D01*
X162103852Y-103386272D01*
X162147146Y-103343054D01*
X162181808Y-103308253D01*
X162207277Y-103282427D01*
X162222990Y-103266131D01*
X162228385Y-103259923D01*
X162228382Y-103259901D01*
X162223269Y-103253590D01*
X162208793Y-103236478D01*
X162185557Y-103209261D01*
X162154165Y-103172637D01*
X162115217Y-103127301D01*
X162069317Y-103073951D01*
X162017067Y-103013283D01*
X161959070Y-102945994D01*
X161895929Y-102872780D01*
X161828245Y-102794340D01*
X161756622Y-102711368D01*
X161681662Y-102624562D01*
X161603967Y-102534620D01*
X161524140Y-102442236D01*
X161442784Y-102348109D01*
X161360501Y-102252935D01*
X161277894Y-102157411D01*
X161195564Y-102062233D01*
X161114116Y-101968098D01*
X161034150Y-101875703D01*
X160956271Y-101785745D01*
X160881080Y-101698920D01*
X160809179Y-101615926D01*
X160741172Y-101537459D01*
X160677661Y-101464215D01*
X160619248Y-101396891D01*
X160566537Y-101336185D01*
X160520128Y-101282793D01*
X160480626Y-101237411D01*
X160448633Y-101200737D01*
X160424750Y-101173467D01*
X160409582Y-101156298D01*
X160403729Y-101149926D01*
X160403686Y-101149902D01*
X160403453Y-101157417D01*
X160403226Y-101179535D01*
X160403005Y-101215619D01*
X160402792Y-101265033D01*
X160402586Y-101327136D01*
X160402389Y-101401293D01*
X160402203Y-101486866D01*
X160402027Y-101583216D01*
X160401862Y-101689707D01*
X160401710Y-101805700D01*
X160401571Y-101930558D01*
X160401446Y-102063642D01*
X160401336Y-102204317D01*
X160401242Y-102351943D01*
X160401164Y-102505883D01*
X160401105Y-102665500D01*
X160401063Y-102830156D01*
X160401041Y-102999212D01*
X160401038Y-103100817D01*
X159250634Y-103100817D01*
X159250867Y-102935004D01*
X159251121Y-102735222D01*
X159251357Y-102529321D01*
X159251575Y-102317782D01*
X159251773Y-102101085D01*
X159251951Y-101879710D01*
X159252106Y-101654136D01*
X159252200Y-101496524D01*
X159254113Y-98055627D01*
X161509859Y-100663023D01*
G37*
%TD*%
M02*
