%TF.GenerationSoftware,KiCad,Pcbnew,7.0.7*%
%TF.CreationDate,2023-08-28T22:10:07-07:00*%
%TF.ProjectId,Untitled,556e7469-746c-4656-942e-6b696361645f,rev?*%
%TF.SameCoordinates,Original*%
%TF.FileFunction,Copper,L1,Top*%
%TF.FilePolarity,Positive*%
%FSLAX46Y46*%
G04 Gerber Fmt 4.6, Leading zero omitted, Abs format (unit mm)*
G04 Created by KiCad (PCBNEW 7.0.7) date 2023-08-28 22:10:07*
%MOMM*%
%LPD*%
G01*
G04 APERTURE LIST*
G04 Aperture macros list*
%AMRoundRect*
0 Rectangle with rounded corners*
0 $1 Rounding radius*
0 $2 $3 $4 $5 $6 $7 $8 $9 X,Y pos of 4 corners*
0 Add a 4 corners polygon primitive as box body*
4,1,4,$2,$3,$4,$5,$6,$7,$8,$9,$2,$3,0*
0 Add four circle primitives for the rounded corners*
1,1,$1+$1,$2,$3*
1,1,$1+$1,$4,$5*
1,1,$1+$1,$6,$7*
1,1,$1+$1,$8,$9*
0 Add four rect primitives between the rounded corners*
20,1,$1+$1,$2,$3,$4,$5,0*
20,1,$1+$1,$4,$5,$6,$7,0*
20,1,$1+$1,$6,$7,$8,$9,0*
20,1,$1+$1,$8,$9,$2,$3,0*%
%AMFreePoly0*
4,1,15,-0.124998,0.730000,0.725000,0.730000,0.728536,0.728536,0.730000,0.725000,0.730000,-0.725000,0.728536,-0.728536,0.725000,-0.730000,-0.725000,-0.730000,-0.728536,-0.728536,-0.730000,-0.725000,-0.730001,0.125000,-0.728536,0.128536,-0.128536,0.728536,-0.125000,0.730001,-0.124998,0.730000,-0.124998,0.730000,$1*%
G04 Aperture macros list end*
%TA.AperFunction,SMDPad,CuDef*%
%ADD10RoundRect,0.200000X0.275000X-0.200000X0.275000X0.200000X-0.275000X0.200000X-0.275000X-0.200000X0*%
%TD*%
%TA.AperFunction,SMDPad,CuDef*%
%ADD11RoundRect,0.200000X-0.275000X0.200000X-0.275000X-0.200000X0.275000X-0.200000X0.275000X0.200000X0*%
%TD*%
%TA.AperFunction,SMDPad,CuDef*%
%ADD12C,1.000000*%
%TD*%
%TA.AperFunction,SMDPad,CuDef*%
%ADD13RoundRect,0.200000X-0.200000X-0.275000X0.200000X-0.275000X0.200000X0.275000X-0.200000X0.275000X0*%
%TD*%
%TA.AperFunction,ComponentPad*%
%ADD14C,5.600000*%
%TD*%
%TA.AperFunction,SMDPad,CuDef*%
%ADD15RoundRect,0.218750X0.256250X-0.218750X0.256250X0.218750X-0.256250X0.218750X-0.256250X-0.218750X0*%
%TD*%
%TA.AperFunction,SMDPad,CuDef*%
%ADD16R,2.450000X1.000000*%
%TD*%
%TA.AperFunction,SMDPad,CuDef*%
%ADD17R,1.000000X2.450000*%
%TD*%
%TA.AperFunction,SMDPad,CuDef*%
%ADD18RoundRect,0.225000X0.250000X-0.225000X0.250000X0.225000X-0.250000X0.225000X-0.250000X-0.225000X0*%
%TD*%
%TA.AperFunction,SMDPad,CuDef*%
%ADD19R,2.000000X1.500000*%
%TD*%
%TA.AperFunction,SMDPad,CuDef*%
%ADD20R,2.000000X3.800000*%
%TD*%
%TA.AperFunction,SMDPad,CuDef*%
%ADD21RoundRect,0.225000X-0.250000X0.225000X-0.250000X-0.225000X0.250000X-0.225000X0.250000X0.225000X0*%
%TD*%
%TA.AperFunction,SMDPad,CuDef*%
%ADD22RoundRect,0.200000X0.200000X0.275000X-0.200000X0.275000X-0.200000X-0.275000X0.200000X-0.275000X0*%
%TD*%
%TA.AperFunction,SMDPad,CuDef*%
%ADD23R,1.000000X1.500000*%
%TD*%
%TA.AperFunction,SMDPad,CuDef*%
%ADD24R,0.600000X1.150000*%
%TD*%
%TA.AperFunction,SMDPad,CuDef*%
%ADD25R,0.300000X1.150000*%
%TD*%
%TA.AperFunction,ComponentPad*%
%ADD26O,1.050000X2.100000*%
%TD*%
%TA.AperFunction,ComponentPad*%
%ADD27O,1.000000X2.000000*%
%TD*%
%TA.AperFunction,SMDPad,CuDef*%
%ADD28R,0.400000X0.800000*%
%TD*%
%TA.AperFunction,SMDPad,CuDef*%
%ADD29R,0.800000X0.400000*%
%TD*%
%TA.AperFunction,SMDPad,CuDef*%
%ADD30FreePoly0,270.000000*%
%TD*%
%TA.AperFunction,SMDPad,CuDef*%
%ADD31R,1.450000X1.450000*%
%TD*%
%TA.AperFunction,SMDPad,CuDef*%
%ADD32R,0.700000X0.700000*%
%TD*%
%TA.AperFunction,ViaPad*%
%ADD33C,0.800000*%
%TD*%
%TA.AperFunction,Conductor*%
%ADD34C,0.250000*%
%TD*%
%TA.AperFunction,Conductor*%
%ADD35C,0.200000*%
%TD*%
G04 APERTURE END LIST*
D10*
%TO.P,R9,1*%
%TO.N,Net-(D4-A)*%
X164200000Y-98725000D03*
%TO.P,R9,2*%
%TO.N,Net-(U2-GPIO0{slash}RXOKLED)*%
X164200000Y-97075000D03*
%TD*%
D11*
%TO.P,R5,1*%
%TO.N,GND*%
X157500000Y-126575000D03*
%TO.P,R5,2*%
%TO.N,Net-(J1-CC1)*%
X157500000Y-128225000D03*
%TD*%
D12*
%TO.P,FID1,*%
%TO.N,*%
X145000000Y-80000000D03*
%TD*%
D11*
%TO.P,R2,1*%
%TO.N,VDD*%
X164084000Y-105347000D03*
%TO.P,R2,2*%
%TO.N,Net-(U1-EN)*%
X164084000Y-106997000D03*
%TD*%
D10*
%TO.P,R6,1*%
%TO.N,Net-(J1-SHELL_GND-PadS1)*%
X162200000Y-128225000D03*
%TO.P,R6,2*%
%TO.N,GND*%
X162200000Y-126575000D03*
%TD*%
D13*
%TO.P,R1,1*%
%TO.N,Net-(U2-~{SPICS})*%
X169575000Y-92700000D03*
%TO.P,R1,2*%
%TO.N,/SPICS*%
X171225000Y-92700000D03*
%TD*%
D14*
%TO.P,H1,1*%
%TO.N,N/C*%
X145000000Y-74000000D03*
%TD*%
D10*
%TO.P,R8,1*%
%TO.N,Net-(D3-A)*%
X162300000Y-98725000D03*
%TO.P,R8,2*%
%TO.N,Net-(U2-GPIO1{slash}SFDLED)*%
X162300000Y-97075000D03*
%TD*%
D14*
%TO.P,H4,1*%
%TO.N,N/C*%
X175000000Y-135000000D03*
%TD*%
D12*
%TO.P,FID4,*%
%TO.N,*%
X175000000Y-130000000D03*
%TD*%
D15*
%TO.P,D1,1,K*%
%TO.N,GND*%
X158600000Y-102187500D03*
%TO.P,D1,2,A*%
%TO.N,Net-(D1-A)*%
X158600000Y-100612500D03*
%TD*%
D16*
%TO.P,U2,1,EXTON*%
%TO.N,unconnected-(U2-EXTON-Pad1)*%
X153705000Y-82050000D03*
%TO.P,U2,2,WAKEUP*%
%TO.N,GND*%
X153705000Y-83450000D03*
%TO.P,U2,3,~{RST}*%
%TO.N,/RST_UWB*%
X153705000Y-84850000D03*
%TO.P,U2,4,GPIO7/SYNC*%
%TO.N,unconnected-(U2-GPIO7{slash}SYNC-Pad4)*%
X153705000Y-86250000D03*
%TO.P,U2,5,VDD1*%
%TO.N,VDD*%
X153705000Y-87650000D03*
%TO.P,U2,6,VDD3V3*%
X153705000Y-89050000D03*
%TO.P,U2,7,VDD3V3*%
X153705000Y-90450000D03*
%TO.P,U2,8,VSS*%
%TO.N,GND*%
X153705000Y-91850000D03*
D17*
%TO.P,U2,9,GPIO6/EXTRXE/SPIPHA*%
%TO.N,unconnected-(U2-GPIO6{slash}EXTRXE{slash}SPIPHA-Pad9)*%
X155100000Y-94145000D03*
%TO.P,U2,10,GPIO5/EXTTXE/SPIPOL*%
%TO.N,unconnected-(U2-GPIO5{slash}EXTTXE{slash}SPIPOL-Pad10)*%
X156500000Y-94145000D03*
%TO.P,U2,11,GPIO4*%
%TO.N,unconnected-(U2-GPIO4-Pad11)*%
X157900000Y-94145000D03*
%TO.P,U2,12,GPIO3/TXLED*%
%TO.N,Net-(U2-GPIO3{slash}TXLED)*%
X159300000Y-94145000D03*
%TO.P,U2,13,GPIO2/RXLED*%
%TO.N,Net-(U2-GPIO2{slash}RXLED)*%
X160700000Y-94145000D03*
%TO.P,U2,14,GPIO1/SFDLED*%
%TO.N,Net-(U2-GPIO1{slash}SFDLED)*%
X162100000Y-94145000D03*
%TO.P,U2,15,GPIO0/RXOKLED*%
%TO.N,Net-(U2-GPIO0{slash}RXOKLED)*%
X163500000Y-94145000D03*
%TO.P,U2,16,VSS*%
%TO.N,GND*%
X164900000Y-94145000D03*
D16*
%TO.P,U2,17,~{SPICS}*%
%TO.N,Net-(U2-~{SPICS})*%
X166295000Y-91850000D03*
%TO.P,U2,18,SPIMOSI*%
%TO.N,Net-(U2-SPIMOSI)*%
X166295000Y-90450000D03*
%TO.P,U2,19,SPIMISO*%
%TO.N,Net-(U2-SPIMISO)*%
X166295000Y-89050000D03*
%TO.P,U2,20,SPICLK*%
%TO.N,Net-(U2-SPICLK)*%
X166295000Y-87650000D03*
%TO.P,U2,21,VSS*%
%TO.N,GND*%
X166295000Y-86250000D03*
%TO.P,U2,22,GPIO8/IRQ*%
%TO.N,Net-(U2-GPIO8{slash}IRQ)*%
X166295000Y-84850000D03*
%TO.P,U2,23,VSS*%
%TO.N,GND*%
X166295000Y-83450000D03*
%TO.P,U2,24,VSS*%
X166295000Y-82050000D03*
%TD*%
D13*
%TO.P,R11,1*%
%TO.N,Net-(U2-SPICLK)*%
X169575000Y-87300000D03*
%TO.P,R11,2*%
%TO.N,/SPICLK*%
X171225000Y-87300000D03*
%TD*%
D18*
%TO.P,C3,1*%
%TO.N,VDD*%
X152300000Y-115075000D03*
%TO.P,C3,2*%
%TO.N,GND*%
X152300000Y-113525000D03*
%TD*%
D15*
%TO.P,D2,1,K*%
%TO.N,GND*%
X160500000Y-102175000D03*
%TO.P,D2,2,A*%
%TO.N,Net-(D2-A)*%
X160500000Y-100600000D03*
%TD*%
D19*
%TO.P,U4,1,GND*%
%TO.N,GND*%
X145450000Y-117300000D03*
%TO.P,U4,2,VO*%
%TO.N,VDD*%
X145450000Y-119600000D03*
D20*
X151750000Y-119600000D03*
D19*
%TO.P,U4,3,VI*%
%TO.N,VBUS*%
X145450000Y-121900000D03*
%TD*%
D21*
%TO.P,C1,1*%
%TO.N,VDD*%
X162356800Y-105397000D03*
%TO.P,C1,2*%
%TO.N,GND*%
X162356800Y-106947000D03*
%TD*%
D15*
%TO.P,D4,1,K*%
%TO.N,GND*%
X164200000Y-102175000D03*
%TO.P,D4,2,A*%
%TO.N,Net-(D4-A)*%
X164200000Y-100600000D03*
%TD*%
D13*
%TO.P,R12,1*%
%TO.N,Net-(U2-SPIMISO)*%
X169575000Y-89100000D03*
%TO.P,R12,2*%
%TO.N,/SPIMISO*%
X171225000Y-89100000D03*
%TD*%
D15*
%TO.P,D3,1,K*%
%TO.N,GND*%
X162300000Y-102187500D03*
%TO.P,D3,2,A*%
%TO.N,Net-(D3-A)*%
X162300000Y-100612500D03*
%TD*%
D14*
%TO.P,H2,1*%
%TO.N,N/C*%
X175000000Y-74000000D03*
%TD*%
D10*
%TO.P,R4,1*%
%TO.N,Net-(J1-CC2)*%
X159900000Y-128225000D03*
%TO.P,R4,2*%
%TO.N,GND*%
X159900000Y-126575000D03*
%TD*%
D12*
%TO.P,FID2,*%
%TO.N,*%
X175000000Y-80000000D03*
%TD*%
%TO.P,FID3,*%
%TO.N,*%
X145000000Y-130000000D03*
%TD*%
D22*
%TO.P,R14,1*%
%TO.N,GND*%
X171225000Y-85500000D03*
%TO.P,R14,2*%
%TO.N,Net-(U2-GPIO8{slash}IRQ)*%
X169575000Y-85500000D03*
%TD*%
D23*
%TO.P,JP2,1,A*%
%TO.N,Net-(JP2-A)*%
X158000000Y-121000000D03*
%TO.P,JP2,2,B*%
%TO.N,GND*%
X156700000Y-121000000D03*
%TD*%
D10*
%TO.P,R10,1*%
%TO.N,Net-(D1-A)*%
X158600000Y-98725000D03*
%TO.P,R10,2*%
%TO.N,Net-(U2-GPIO3{slash}TXLED)*%
X158600000Y-97075000D03*
%TD*%
D13*
%TO.P,R13,1*%
%TO.N,Net-(U2-SPIMOSI)*%
X169575000Y-90900000D03*
%TO.P,R13,2*%
%TO.N,/SPIMOSI*%
X171225000Y-90900000D03*
%TD*%
D24*
%TO.P,J1,A1_B12,GND*%
%TO.N,GND*%
X156700000Y-131310000D03*
%TO.P,J1,A4_B9,VBUS*%
%TO.N,VBUS*%
X157500000Y-131310000D03*
D25*
%TO.P,J1,A5,CC1*%
%TO.N,Net-(J1-CC1)*%
X158650000Y-131310000D03*
%TO.P,J1,A6,DP1*%
%TO.N,/D+*%
X159650000Y-131310000D03*
%TO.P,J1,A7,DN1*%
%TO.N,/D-*%
X160150000Y-131310000D03*
%TO.P,J1,A8,SBU1*%
%TO.N,unconnected-(J1-SBU1-PadA8)*%
X161150000Y-131310000D03*
D24*
%TO.P,J1,B1_A12,GND*%
%TO.N,GND*%
X163100000Y-131310000D03*
%TO.P,J1,B4_A9,VBUS*%
%TO.N,VBUS*%
X162300000Y-131310000D03*
D25*
%TO.P,J1,B5,CC2*%
%TO.N,Net-(J1-CC2)*%
X161650000Y-131310000D03*
%TO.P,J1,B6,DP2*%
%TO.N,/D+*%
X160650000Y-131310000D03*
%TO.P,J1,B7,DN2*%
%TO.N,/D-*%
X159150000Y-131310000D03*
%TO.P,J1,B8,SBU2*%
%TO.N,unconnected-(J1-SBU2-PadB8)*%
X158150000Y-131310000D03*
D26*
%TO.P,J1,S1,SHELL_GND*%
%TO.N,Net-(J1-SHELL_GND-PadS1)*%
X155580000Y-131885000D03*
D27*
%TO.P,J1,S2,SHELL_GND*%
X155580000Y-136065000D03*
%TO.P,J1,S3,SHELL_GND*%
X164220000Y-136065000D03*
D26*
%TO.P,J1,S4,SHELL_GND*%
X164220000Y-131885000D03*
%TD*%
D28*
%TO.P,U1,1,GND*%
%TO.N,GND*%
X169875000Y-109225000D03*
%TO.P,U1,2,GND*%
X169075000Y-109225000D03*
%TO.P,U1,3,3V3*%
%TO.N,VDD*%
X168275000Y-109225000D03*
%TO.P,U1,4,NC*%
%TO.N,unconnected-(U1-NC-Pad4)*%
X167475000Y-109225000D03*
%TO.P,U1,5,IO2*%
%TO.N,/SPIMISO*%
X166675000Y-109225000D03*
%TO.P,U1,6,IO3*%
%TO.N,GND*%
X165875000Y-109225000D03*
%TO.P,U1,7,NC*%
%TO.N,unconnected-(U1-NC-Pad7)*%
X165075000Y-109225000D03*
%TO.P,U1,8,EN*%
%TO.N,Net-(U1-EN)*%
X164275000Y-109225000D03*
%TO.P,U1,9,NC*%
%TO.N,unconnected-(U1-NC-Pad9)*%
X163475000Y-109225000D03*
%TO.P,U1,10,NC*%
%TO.N,unconnected-(U1-NC-Pad10)*%
X162675000Y-109225000D03*
%TO.P,U1,11,GND*%
%TO.N,GND*%
X161875000Y-109225000D03*
D29*
%TO.P,U1,12,IO0*%
%TO.N,unconnected-(U1-IO0-Pad12)*%
X160975000Y-110325000D03*
%TO.P,U1,13,IO1*%
%TO.N,unconnected-(U1-IO1-Pad13)*%
X160975000Y-111125000D03*
%TO.P,U1,14,GND*%
%TO.N,GND*%
X160975000Y-111925000D03*
%TO.P,U1,15,NC*%
%TO.N,unconnected-(U1-NC-Pad15)*%
X160975000Y-112725000D03*
%TO.P,U1,16,IO10*%
%TO.N,/SPICS*%
X160975000Y-113525000D03*
%TO.P,U1,17,NC*%
%TO.N,unconnected-(U1-NC-Pad17)*%
X160975000Y-114325000D03*
%TO.P,U1,18,IO4*%
%TO.N,/RST_UWB*%
X160975000Y-115125000D03*
%TO.P,U1,19,IO5*%
%TO.N,unconnected-(U1-IO5-Pad19)*%
X160975000Y-115925000D03*
%TO.P,U1,20,IO6*%
%TO.N,/SPICLK*%
X160975000Y-116725000D03*
%TO.P,U1,21,IO7*%
%TO.N,/SPIMOSI*%
X160975000Y-117525000D03*
%TO.P,U1,22,IO8*%
%TO.N,Net-(U1-IO8)*%
X160975000Y-118325000D03*
%TO.P,U1,23,IO9*%
%TO.N,Net-(JP2-A)*%
X160975000Y-119125000D03*
%TO.P,U1,24,NC*%
%TO.N,unconnected-(U1-NC-Pad24)*%
X160975000Y-119925000D03*
D28*
%TO.P,U1,25,NC*%
%TO.N,unconnected-(U1-NC-Pad25)*%
X161875000Y-121025000D03*
%TO.P,U1,26,IO18*%
%TO.N,/D-*%
X162675000Y-121025000D03*
%TO.P,U1,27,IO19*%
%TO.N,/D+*%
X163475000Y-121025000D03*
%TO.P,U1,28,NC*%
%TO.N,unconnected-(U1-NC-Pad28)*%
X164275000Y-121025000D03*
%TO.P,U1,29,NC*%
%TO.N,unconnected-(U1-NC-Pad29)*%
X165075000Y-121025000D03*
%TO.P,U1,30,RXD0*%
%TO.N,unconnected-(U1-RXD0-Pad30)*%
X165875000Y-121025000D03*
%TO.P,U1,31,TXD0*%
%TO.N,unconnected-(U1-TXD0-Pad31)*%
X166675000Y-121025000D03*
%TO.P,U1,32,NC*%
%TO.N,unconnected-(U1-NC-Pad32)*%
X167475000Y-121025000D03*
%TO.P,U1,33,NC*%
%TO.N,unconnected-(U1-NC-Pad33)*%
X168275000Y-121025000D03*
%TO.P,U1,34,NC*%
%TO.N,unconnected-(U1-NC-Pad34)*%
X169075000Y-121025000D03*
%TO.P,U1,35,NC*%
%TO.N,unconnected-(U1-NC-Pad35)*%
X169875000Y-121025000D03*
D29*
%TO.P,U1,36,GND*%
%TO.N,GND*%
X170775000Y-119925000D03*
%TO.P,U1,37,GND*%
X170775000Y-119125000D03*
%TO.P,U1,38,GND*%
X170775000Y-118325000D03*
%TO.P,U1,39,GND*%
X170775000Y-117525000D03*
%TO.P,U1,40,GND*%
X170775000Y-116725000D03*
%TO.P,U1,41,GND*%
X170775000Y-115925000D03*
%TO.P,U1,42,GND*%
X170775000Y-115125000D03*
%TO.P,U1,43,GND*%
X170775000Y-114325000D03*
%TO.P,U1,44,GND*%
X170775000Y-113525000D03*
%TO.P,U1,45,GND*%
X170775000Y-112725000D03*
%TO.P,U1,46,GND*%
X170775000Y-111925000D03*
%TO.P,U1,47,GND*%
X170775000Y-111125000D03*
%TO.P,U1,48,GND*%
X170775000Y-110325000D03*
D30*
%TO.P,U1,49_1,GND*%
X167850000Y-113150000D03*
D31*
%TO.P,U1,49_2,GND*%
X167850000Y-115125000D03*
%TO.P,U1,49_3,GND*%
X167850000Y-117100000D03*
%TO.P,U1,49_4,GND*%
X165875000Y-117100000D03*
%TO.P,U1,49_5,GND*%
X163900000Y-117100000D03*
%TO.P,U1,49_6,GND*%
X163900000Y-115125000D03*
%TO.P,U1,49_7,GND*%
X163900000Y-113150000D03*
%TO.P,U1,49_8,GND*%
X165875000Y-113150000D03*
%TO.P,U1,49_9,GND*%
X165875000Y-115125000D03*
D32*
%TO.P,U1,50,GND*%
X170825000Y-121075000D03*
%TO.P,U1,51,GND*%
X160925000Y-121075000D03*
%TO.P,U1,52,GND*%
X160925000Y-109175000D03*
%TO.P,U1,53,GND*%
X170825000Y-109175000D03*
%TD*%
D22*
%TO.P,R3,1*%
%TO.N,Net-(U1-IO8)*%
X158000200Y-118211600D03*
%TO.P,R3,2*%
%TO.N,VDD*%
X156350200Y-118211600D03*
%TD*%
D14*
%TO.P,H3,1*%
%TO.N,N/C*%
X145000000Y-135000000D03*
%TD*%
D10*
%TO.P,R7,1*%
%TO.N,Net-(D2-A)*%
X160500000Y-98725000D03*
%TO.P,R7,2*%
%TO.N,Net-(U2-GPIO2{slash}RXLED)*%
X160500000Y-97075000D03*
%TD*%
D21*
%TO.P,C2,1*%
%TO.N,VBUS*%
X152300000Y-124125000D03*
%TO.P,C2,2*%
%TO.N,GND*%
X152300000Y-125675000D03*
%TD*%
D33*
%TO.N,VDD*%
X155702000Y-90525600D03*
X165150800Y-110224502D03*
X164084000Y-105347000D03*
X153568400Y-115112800D03*
%TO.N,GND*%
X152298400Y-112318800D03*
X159918400Y-125476000D03*
X168198800Y-82042000D03*
X155651200Y-91846400D03*
X163109401Y-130158999D03*
X169722800Y-119938800D03*
X152349200Y-126847600D03*
X160934400Y-121869200D03*
X164947600Y-96113600D03*
X166522400Y-107391200D03*
X155143200Y-121005600D03*
X167843200Y-118618000D03*
X164185600Y-103327200D03*
X151638000Y-83413600D03*
X168351200Y-86360000D03*
X159258000Y-109220000D03*
X162204400Y-125476000D03*
X147269200Y-117297200D03*
X157480000Y-125476000D03*
X162356800Y-107950000D03*
X162306000Y-103327200D03*
X171246800Y-84328000D03*
X160578800Y-103327200D03*
X158597600Y-103327200D03*
X156718000Y-129997200D03*
%TO.N,Net-(J1-CC2)*%
X159475500Y-129735500D03*
X161645600Y-130048000D03*
%TO.N,/SPICS*%
X162001200Y-113538000D03*
X171225000Y-92700000D03*
%TO.N,/SPICLK*%
X171225000Y-87300000D03*
X162102800Y-116738400D03*
%TO.N,/SPIMOSI*%
X171225000Y-90900000D03*
X162102800Y-117737903D03*
%TD*%
D34*
%TO.N,VDD*%
X162356800Y-105397000D02*
X164034000Y-105397000D01*
X152337800Y-115112800D02*
X152300000Y-115075000D01*
X153705000Y-87650000D02*
X153705000Y-90450000D01*
X154961800Y-119600000D02*
X156350200Y-118211600D01*
X167725498Y-110224502D02*
X165150800Y-110224502D01*
X151750000Y-119600000D02*
X154961800Y-119600000D01*
X164034000Y-105397000D02*
X164084000Y-105347000D01*
X155626400Y-90450000D02*
X155702000Y-90525600D01*
X153568400Y-115112800D02*
X152337800Y-115112800D01*
X168275000Y-109225000D02*
X168275000Y-109675000D01*
X153705000Y-90450000D02*
X155626400Y-90450000D01*
X151750000Y-115625000D02*
X152300000Y-115075000D01*
X168275000Y-109675000D02*
X167725498Y-110224502D01*
X151750000Y-119600000D02*
X151750000Y-115625000D01*
X145450000Y-119600000D02*
X151750000Y-119600000D01*
%TO.N,GND*%
X170825000Y-109175000D02*
X170825000Y-121075000D01*
X161875000Y-109270302D02*
X161875498Y-109270800D01*
X163100000Y-130168400D02*
X163109401Y-130158999D01*
X162200000Y-126575000D02*
X162200000Y-125480400D01*
X152298400Y-112318800D02*
X152300000Y-112320400D01*
X157500000Y-126575000D02*
X157500000Y-125496000D01*
X162300000Y-103321200D02*
X162300000Y-102187500D01*
X168351200Y-86360000D02*
X168241200Y-86250000D01*
X159900000Y-126575000D02*
X159900000Y-125494400D01*
X170775000Y-119925000D02*
X169736600Y-119925000D01*
X158597600Y-102189900D02*
X158600000Y-102187500D01*
X164200000Y-103312800D02*
X164185600Y-103327200D01*
X159258000Y-109220000D02*
X160880000Y-109220000D01*
X152300000Y-126798400D02*
X152349200Y-126847600D01*
X159900000Y-125494400D02*
X159918400Y-125476000D01*
X167850000Y-113150000D02*
X163900000Y-113150000D01*
X155651200Y-91846400D02*
X155647600Y-91850000D01*
X162306000Y-103327200D02*
X162300000Y-103321200D01*
X152300000Y-125675000D02*
X152300000Y-126798400D01*
X160975000Y-111925000D02*
X161625000Y-111925000D01*
X160925000Y-109175000D02*
X161825000Y-109175000D01*
X145452800Y-117297200D02*
X145450000Y-117300000D01*
X160925000Y-121859800D02*
X160934400Y-121869200D01*
X162356800Y-107950000D02*
X162356800Y-106947000D01*
X165875000Y-108038600D02*
X166522400Y-107391200D01*
X167850000Y-113150000D02*
X167850000Y-118611200D01*
X160880000Y-109220000D02*
X160925000Y-109175000D01*
X161875000Y-111675000D02*
X161875000Y-109225000D01*
X171246800Y-85478200D02*
X171225000Y-85500000D01*
X156700000Y-121000000D02*
X155148800Y-121000000D01*
X152300000Y-112320400D02*
X152300000Y-113525000D01*
X164900000Y-96066000D02*
X164947600Y-96113600D01*
X151638000Y-83413600D02*
X153668600Y-83413600D01*
X158597600Y-103327200D02*
X158597600Y-102189900D01*
X156700000Y-131310000D02*
X156700000Y-130015200D01*
X164200000Y-102175000D02*
X164200000Y-103312800D01*
X169075000Y-109225000D02*
X170775000Y-109225000D01*
X156700000Y-130015200D02*
X156718000Y-129997200D01*
X155647600Y-91850000D02*
X153705000Y-91850000D01*
X147269200Y-117297200D02*
X145452800Y-117297200D01*
X163100000Y-131310000D02*
X163100000Y-130168400D01*
X163900000Y-117100000D02*
X163900000Y-113150000D01*
X161625000Y-111925000D02*
X161875000Y-111675000D01*
X170775000Y-109225000D02*
X170825000Y-109175000D01*
X160925000Y-121075000D02*
X160925000Y-121859800D01*
X161825000Y-109175000D02*
X161875000Y-109225000D01*
X168198800Y-82042000D02*
X168190800Y-82050000D01*
X161875000Y-109225000D02*
X161875000Y-109270302D01*
X168241200Y-86250000D02*
X166295000Y-86250000D01*
X171246800Y-84328000D02*
X171246800Y-85478200D01*
X157500000Y-125496000D02*
X157480000Y-125476000D01*
X153668600Y-83413600D02*
X153705000Y-83450000D01*
X160578800Y-103327200D02*
X160578800Y-102253800D01*
X164900000Y-94145000D02*
X164900000Y-96066000D01*
X166295000Y-82050000D02*
X166295000Y-83450000D01*
X165875000Y-113150000D02*
X165875000Y-117100000D01*
X165875000Y-109225000D02*
X165875000Y-108038600D01*
X167850000Y-118611200D02*
X167843200Y-118618000D01*
X168190800Y-82050000D02*
X166295000Y-82050000D01*
X162200000Y-125480400D02*
X162204400Y-125476000D01*
X160578800Y-102253800D02*
X160500000Y-102175000D01*
X155148800Y-121000000D02*
X155143200Y-121005600D01*
X169736600Y-119925000D02*
X169722800Y-119938800D01*
%TO.N,VBUS*%
X162300000Y-131885051D02*
X161393851Y-132791200D01*
X150075000Y-121900000D02*
X145450000Y-121900000D01*
X157500000Y-129622183D02*
X152300000Y-124422183D01*
X157500000Y-131885051D02*
X157500000Y-131310000D01*
X157500000Y-131310000D02*
X157500000Y-129622183D01*
X152300000Y-124422183D02*
X152300000Y-124125000D01*
X162300000Y-131310000D02*
X162300000Y-131885051D01*
X152300000Y-124125000D02*
X150075000Y-121900000D01*
X158406149Y-132791200D02*
X157500000Y-131885051D01*
X161393851Y-132791200D02*
X158406149Y-132791200D01*
%TO.N,Net-(D1-A)*%
X158600000Y-98725000D02*
X158600000Y-100612500D01*
%TO.N,Net-(D2-A)*%
X160500000Y-98725000D02*
X160500000Y-100600000D01*
%TO.N,Net-(D3-A)*%
X162300000Y-100612500D02*
X162300000Y-98725000D01*
%TO.N,Net-(D4-A)*%
X164200000Y-98725000D02*
X164200000Y-100600000D01*
%TO.N,Net-(J1-SHELL_GND-PadS1)*%
X164220000Y-131885000D02*
X164220000Y-130245000D01*
X164220000Y-130245000D02*
X162200000Y-128225000D01*
X155580000Y-136065000D02*
X164220000Y-136065000D01*
X155580000Y-131885000D02*
X155580000Y-136065000D01*
X164220000Y-136065000D02*
X164220000Y-131885000D01*
D35*
%TO.N,/D-*%
X159150000Y-130485000D02*
X159200000Y-130435000D01*
X160150000Y-130447499D02*
X160150000Y-130556000D01*
X160029000Y-130435000D02*
X160150000Y-130556000D01*
X162375000Y-121488603D02*
X162375000Y-121725000D01*
X162138603Y-121725000D02*
X160675000Y-123188603D01*
X160175000Y-130422499D02*
X160150000Y-130447499D01*
X162675000Y-121025000D02*
X162675000Y-121188603D01*
X159150000Y-131310000D02*
X159150000Y-130485000D01*
X160150000Y-130556000D02*
X160150000Y-131310000D01*
X162375000Y-121725000D02*
X162138603Y-121725000D01*
X162675000Y-121188603D02*
X162375000Y-121488603D01*
X159200000Y-130435000D02*
X160029000Y-130435000D01*
X160675000Y-123188603D02*
X160675000Y-128632107D01*
X160675000Y-128632107D02*
X160175000Y-129132107D01*
X160175000Y-129132107D02*
X160175000Y-130422499D01*
%TO.N,/D+*%
X162561388Y-122174980D02*
X162325020Y-122174980D01*
X163475000Y-121025000D02*
X163175000Y-121325000D01*
X160650000Y-130447499D02*
X160650000Y-131310000D01*
X159650000Y-131310000D02*
X159650000Y-132135000D01*
X160552600Y-132232400D02*
X160650000Y-132135000D01*
X159747400Y-132232400D02*
X160552600Y-132232400D01*
X161124980Y-123375020D02*
X161124980Y-128818495D01*
X160625000Y-129318475D02*
X160625000Y-130422499D01*
X160625000Y-130422499D02*
X160650000Y-130447499D01*
X162325020Y-122174980D02*
X161124980Y-123375020D01*
X163175000Y-121325000D02*
X163175000Y-121561368D01*
X163175000Y-121561368D02*
X162561388Y-122174980D01*
X159650000Y-132135000D02*
X159747400Y-132232400D01*
X161124980Y-128818495D02*
X160625000Y-129318475D01*
X160650000Y-132135000D02*
X160650000Y-131310000D01*
D34*
%TO.N,Net-(J1-CC2)*%
X159475500Y-128649500D02*
X159900000Y-128225000D01*
X161650000Y-130052400D02*
X161645600Y-130048000D01*
X159475500Y-129735500D02*
X159475500Y-128649500D01*
X161650000Y-131310000D02*
X161650000Y-130052400D01*
%TO.N,Net-(J1-CC1)*%
X158650000Y-129375000D02*
X157500000Y-128225000D01*
X158650000Y-131310000D02*
X158650000Y-129375000D01*
%TO.N,Net-(JP2-A)*%
X159875000Y-119125000D02*
X160975000Y-119125000D01*
X158000000Y-121000000D02*
X159875000Y-119125000D01*
%TO.N,Net-(U2-~{SPICS})*%
X168725000Y-91850000D02*
X169575000Y-92700000D01*
X166295000Y-91850000D02*
X168725000Y-91850000D01*
%TO.N,/SPICS*%
X162001200Y-113538000D02*
X160988000Y-113538000D01*
X160988000Y-113538000D02*
X160975000Y-113525000D01*
%TO.N,Net-(U1-EN)*%
X164084000Y-109034000D02*
X164275000Y-109225000D01*
X164084000Y-106997000D02*
X164084000Y-109034000D01*
%TO.N,Net-(U1-IO8)*%
X158000200Y-118211600D02*
X158113600Y-118325000D01*
X158113600Y-118325000D02*
X160975000Y-118325000D01*
%TO.N,Net-(U2-GPIO2{slash}RXLED)*%
X160500000Y-97075000D02*
X160700000Y-96875000D01*
X160700000Y-96875000D02*
X160700000Y-94145000D01*
%TO.N,Net-(U2-GPIO1{slash}SFDLED)*%
X162300000Y-97075000D02*
X162100000Y-96875000D01*
X162100000Y-96875000D02*
X162100000Y-94145000D01*
%TO.N,Net-(U2-GPIO0{slash}RXOKLED)*%
X163500000Y-96375000D02*
X163500000Y-94145000D01*
X164200000Y-97075000D02*
X163500000Y-96375000D01*
%TO.N,Net-(U2-GPIO3{slash}TXLED)*%
X159300000Y-94145000D02*
X159300000Y-96375000D01*
X159300000Y-96375000D02*
X158600000Y-97075000D01*
%TO.N,Net-(U2-SPICLK)*%
X169225000Y-87650000D02*
X169575000Y-87300000D01*
X166295000Y-87650000D02*
X169225000Y-87650000D01*
%TO.N,/SPICLK*%
X160988400Y-116738400D02*
X160975000Y-116725000D01*
X162102800Y-116738400D02*
X160988400Y-116738400D01*
%TO.N,Net-(U2-SPIMISO)*%
X169525000Y-89050000D02*
X169575000Y-89100000D01*
X166295000Y-89050000D02*
X169525000Y-89050000D01*
%TO.N,/SPIMISO*%
X166675000Y-108575000D02*
X166675000Y-109225000D01*
X171950000Y-103300000D02*
X166675000Y-108575000D01*
X171950000Y-89825000D02*
X171950000Y-103300000D01*
X171225000Y-89100000D02*
X171950000Y-89825000D01*
%TO.N,Net-(U2-SPIMOSI)*%
X169125000Y-90450000D02*
X169575000Y-90900000D01*
X166295000Y-90450000D02*
X169125000Y-90450000D01*
%TO.N,/SPIMOSI*%
X161889897Y-117525000D02*
X162102800Y-117737903D01*
X160975000Y-117525000D02*
X161889897Y-117525000D01*
%TO.N,Net-(U2-GPIO8{slash}IRQ)*%
X166295000Y-84850000D02*
X168925000Y-84850000D01*
X168925000Y-84850000D02*
X169575000Y-85500000D01*
%TO.N,/RST_UWB*%
X160354600Y-115125000D02*
X160975000Y-115125000D01*
X152155000Y-85425000D02*
X152155000Y-106925400D01*
X152730000Y-84850000D02*
X152155000Y-85425000D01*
X152155000Y-106925400D02*
X160354600Y-115125000D01*
X153705000Y-84850000D02*
X152730000Y-84850000D01*
%TD*%
M02*
