%TF.GenerationSoftware,KiCad,Pcbnew,7.0.7*%
%TF.CreationDate,2023-08-28T22:10:07-07:00*%
%TF.ProjectId,Untitled,556e7469-746c-4656-942e-6b696361645f,rev?*%
%TF.SameCoordinates,Original*%
%TF.FileFunction,Soldermask,Top*%
%TF.FilePolarity,Negative*%
%FSLAX46Y46*%
G04 Gerber Fmt 4.6, Leading zero omitted, Abs format (unit mm)*
G04 Created by KiCad (PCBNEW 7.0.7) date 2023-08-28 22:10:07*
%MOMM*%
%LPD*%
G01*
G04 APERTURE LIST*
G04 Aperture macros list*
%AMRoundRect*
0 Rectangle with rounded corners*
0 $1 Rounding radius*
0 $2 $3 $4 $5 $6 $7 $8 $9 X,Y pos of 4 corners*
0 Add a 4 corners polygon primitive as box body*
4,1,4,$2,$3,$4,$5,$6,$7,$8,$9,$2,$3,0*
0 Add four circle primitives for the rounded corners*
1,1,$1+$1,$2,$3*
1,1,$1+$1,$4,$5*
1,1,$1+$1,$6,$7*
1,1,$1+$1,$8,$9*
0 Add four rect primitives between the rounded corners*
20,1,$1+$1,$2,$3,$4,$5,0*
20,1,$1+$1,$4,$5,$6,$7,0*
20,1,$1+$1,$6,$7,$8,$9,0*
20,1,$1+$1,$8,$9,$2,$3,0*%
G04 Aperture macros list end*
%ADD10C,0.010000*%
%ADD11RoundRect,0.200000X0.275000X-0.200000X0.275000X0.200000X-0.275000X0.200000X-0.275000X-0.200000X0*%
%ADD12RoundRect,0.200000X-0.275000X0.200000X-0.275000X-0.200000X0.275000X-0.200000X0.275000X0.200000X0*%
%ADD13C,2.000000*%
%ADD14RoundRect,0.200000X-0.200000X-0.275000X0.200000X-0.275000X0.200000X0.275000X-0.200000X0.275000X0*%
%ADD15C,5.600000*%
%ADD16RoundRect,0.218750X0.256250X-0.218750X0.256250X0.218750X-0.256250X0.218750X-0.256250X-0.218750X0*%
%ADD17R,2.450000X1.000000*%
%ADD18R,1.000000X2.450000*%
%ADD19RoundRect,0.225000X0.250000X-0.225000X0.250000X0.225000X-0.250000X0.225000X-0.250000X-0.225000X0*%
%ADD20R,2.000000X1.500000*%
%ADD21R,2.000000X3.800000*%
%ADD22RoundRect,0.225000X-0.250000X0.225000X-0.250000X-0.225000X0.250000X-0.225000X0.250000X0.225000X0*%
%ADD23RoundRect,0.200000X0.200000X0.275000X-0.200000X0.275000X-0.200000X-0.275000X0.200000X-0.275000X0*%
%ADD24R,1.000000X1.500000*%
%ADD25C,0.650000*%
%ADD26R,0.600000X1.150000*%
%ADD27R,0.300000X1.150000*%
%ADD28O,1.050000X2.100000*%
%ADD29O,1.000000X2.000000*%
%ADD30R,0.400000X0.800000*%
%ADD31R,0.800000X0.400000*%
%ADD32R,1.450000X1.450000*%
%ADD33R,0.700000X0.700000*%
G04 APERTURE END LIST*
%TO.C,U1*%
D10*
X168675000Y-112985000D02*
X168675000Y-113975000D01*
X167025000Y-113975000D01*
X167025000Y-112325000D01*
X168015000Y-112325000D01*
X168675000Y-112985000D01*
G36*
X168675000Y-112985000D02*
G01*
X168675000Y-113975000D01*
X167025000Y-113975000D01*
X167025000Y-112325000D01*
X168015000Y-112325000D01*
X168675000Y-112985000D01*
G37*
%TD*%
D11*
%TO.C,R9*%
X164200000Y-98725000D03*
X164200000Y-97075000D03*
%TD*%
D12*
%TO.C,R5*%
X157500000Y-126575000D03*
X157500000Y-128225000D03*
%TD*%
D13*
%TO.C,FID1*%
X145000000Y-80000000D03*
%TD*%
D12*
%TO.C,R2*%
X164084000Y-105347000D03*
X164084000Y-106997000D03*
%TD*%
D11*
%TO.C,R6*%
X162200000Y-128225000D03*
X162200000Y-126575000D03*
%TD*%
D14*
%TO.C,R1*%
X169575000Y-92700000D03*
X171225000Y-92700000D03*
%TD*%
D15*
%TO.C,H1*%
X145000000Y-74000000D03*
%TD*%
D11*
%TO.C,R8*%
X162300000Y-98725000D03*
X162300000Y-97075000D03*
%TD*%
D15*
%TO.C,H4*%
X175000000Y-135000000D03*
%TD*%
D13*
%TO.C,FID4*%
X175000000Y-130000000D03*
%TD*%
D16*
%TO.C,D1*%
X158600000Y-102187500D03*
X158600000Y-100612500D03*
%TD*%
D17*
%TO.C,U2*%
X153705000Y-82050000D03*
X153705000Y-83450000D03*
X153705000Y-84850000D03*
X153705000Y-86250000D03*
X153705000Y-87650000D03*
X153705000Y-89050000D03*
X153705000Y-90450000D03*
X153705000Y-91850000D03*
D18*
X155100000Y-94145000D03*
X156500000Y-94145000D03*
X157900000Y-94145000D03*
X159300000Y-94145000D03*
X160700000Y-94145000D03*
X162100000Y-94145000D03*
X163500000Y-94145000D03*
X164900000Y-94145000D03*
D17*
X166295000Y-91850000D03*
X166295000Y-90450000D03*
X166295000Y-89050000D03*
X166295000Y-87650000D03*
X166295000Y-86250000D03*
X166295000Y-84850000D03*
X166295000Y-83450000D03*
X166295000Y-82050000D03*
%TD*%
D14*
%TO.C,R11*%
X169575000Y-87300000D03*
X171225000Y-87300000D03*
%TD*%
D19*
%TO.C,C3*%
X152300000Y-115075000D03*
X152300000Y-113525000D03*
%TD*%
D16*
%TO.C,D2*%
X160500000Y-102175000D03*
X160500000Y-100600000D03*
%TD*%
D20*
%TO.C,U4*%
X145450000Y-117300000D03*
X145450000Y-119600000D03*
D21*
X151750000Y-119600000D03*
D20*
X145450000Y-121900000D03*
%TD*%
D22*
%TO.C,C1*%
X162356800Y-105397000D03*
X162356800Y-106947000D03*
%TD*%
D16*
%TO.C,D4*%
X164200000Y-102175000D03*
X164200000Y-100600000D03*
%TD*%
D14*
%TO.C,R12*%
X169575000Y-89100000D03*
X171225000Y-89100000D03*
%TD*%
D16*
%TO.C,D3*%
X162300000Y-102187500D03*
X162300000Y-100612500D03*
%TD*%
D15*
%TO.C,H2*%
X175000000Y-74000000D03*
%TD*%
D11*
%TO.C,R4*%
X159900000Y-128225000D03*
X159900000Y-126575000D03*
%TD*%
D13*
%TO.C,FID2*%
X175000000Y-80000000D03*
%TD*%
%TO.C,FID3*%
X145000000Y-130000000D03*
%TD*%
D23*
%TO.C,R14*%
X171225000Y-85500000D03*
X169575000Y-85500000D03*
%TD*%
D24*
%TO.C,JP2*%
X158000000Y-121000000D03*
X156700000Y-121000000D03*
%TD*%
D11*
%TO.C,R10*%
X158600000Y-98725000D03*
X158600000Y-97075000D03*
%TD*%
D14*
%TO.C,R13*%
X169575000Y-90900000D03*
X171225000Y-90900000D03*
%TD*%
D25*
%TO.C,J1*%
X157010000Y-132385000D03*
X162790000Y-132385000D03*
D26*
X156700000Y-131310000D03*
X157500000Y-131310000D03*
D27*
X158650000Y-131310000D03*
X159650000Y-131310000D03*
X160150000Y-131310000D03*
X161150000Y-131310000D03*
D26*
X163100000Y-131310000D03*
X162300000Y-131310000D03*
D27*
X161650000Y-131310000D03*
X160650000Y-131310000D03*
X159150000Y-131310000D03*
X158150000Y-131310000D03*
D28*
X155580000Y-131885000D03*
D29*
X155580000Y-136065000D03*
X164220000Y-136065000D03*
D28*
X164220000Y-131885000D03*
%TD*%
D30*
%TO.C,U1*%
X169875000Y-109225000D03*
X169075000Y-109225000D03*
X168275000Y-109225000D03*
X167475000Y-109225000D03*
X166675000Y-109225000D03*
X165875000Y-109225000D03*
X165075000Y-109225000D03*
X164275000Y-109225000D03*
X163475000Y-109225000D03*
X162675000Y-109225000D03*
X161875000Y-109225000D03*
D31*
X160975000Y-110325000D03*
X160975000Y-111125000D03*
X160975000Y-111925000D03*
X160975000Y-112725000D03*
X160975000Y-113525000D03*
X160975000Y-114325000D03*
X160975000Y-115125000D03*
X160975000Y-115925000D03*
X160975000Y-116725000D03*
X160975000Y-117525000D03*
X160975000Y-118325000D03*
X160975000Y-119125000D03*
X160975000Y-119925000D03*
D30*
X161875000Y-121025000D03*
X162675000Y-121025000D03*
X163475000Y-121025000D03*
X164275000Y-121025000D03*
X165075000Y-121025000D03*
X165875000Y-121025000D03*
X166675000Y-121025000D03*
X167475000Y-121025000D03*
X168275000Y-121025000D03*
X169075000Y-121025000D03*
X169875000Y-121025000D03*
D31*
X170775000Y-119925000D03*
X170775000Y-119125000D03*
X170775000Y-118325000D03*
X170775000Y-117525000D03*
X170775000Y-116725000D03*
X170775000Y-115925000D03*
X170775000Y-115125000D03*
X170775000Y-114325000D03*
X170775000Y-113525000D03*
X170775000Y-112725000D03*
X170775000Y-111925000D03*
X170775000Y-111125000D03*
X170775000Y-110325000D03*
D32*
X167850000Y-115125000D03*
X167850000Y-117100000D03*
X165875000Y-117100000D03*
X163900000Y-117100000D03*
X163900000Y-115125000D03*
X163900000Y-113150000D03*
X165875000Y-113150000D03*
X165875000Y-115125000D03*
D33*
X170825000Y-121075000D03*
X160925000Y-121075000D03*
X160925000Y-109175000D03*
X170825000Y-109175000D03*
%TD*%
D23*
%TO.C,R3*%
X158000200Y-118211600D03*
X156350200Y-118211600D03*
%TD*%
D15*
%TO.C,H3*%
X145000000Y-135000000D03*
%TD*%
D11*
%TO.C,R7*%
X160500000Y-98725000D03*
X160500000Y-97075000D03*
%TD*%
D22*
%TO.C,C2*%
X152300000Y-124125000D03*
X152300000Y-125675000D03*
%TD*%
M02*
